<svg width="40" height="40" viewBox="0 0 40 40" fill="none" xmlns="http://www.w3.org/2000/svg">
<path d="M5 7C4.44772 7 4 7.44772 4 8C4 8.55228 4.44772 9 5 9V7ZM35 9C35.5523 9 36 8.55228 36 8C36 7.44772 35.5523 7 35 7V9ZM5 9H35V7H5V9Z" fill="#FAFAFA"/>
<path d="M5 19C4.44772 19 4 19.4477 4 20C4 20.5523 4.44772 21 5 21V19ZM35 21C35.5523 21 36 20.5523 36 20C36 19.4477 35.5523 19 35 19V21ZM5 21H35V19H5V21Z" fill="#FAFAFA"/>
<path d="M5 31C4.44772 31 4 31.4477 4 32C4 32.5523 4.44772 33 5 33V31ZM35 33C35.5523 33 36 32.5523 36 32C36 31.4477 35.5523 31 35 31V33ZM5 33H35V31H5V33Z" fill="#FAFAFA"/>
</svg>
