<svg width="380" height="110" viewBox="0 0 380 110" fill="none" xmlns="http://www.w3.org/2000/svg">
<g filter="url(#filter0_d_602_311)">
<path d="M15.16 11.888L15.8671 12.5951L15.8671 12.5951L15.16 11.888ZM63.064 18.896L62.3756 19.6214L62.3833 19.6285L63.064 18.896ZM63.064 65.168L62.3833 64.4355L62.3796 64.4389L63.064 65.168ZM15.16 72.176L14.435 72.8647L14.4527 72.8833L14.4713 72.901L15.16 72.176ZM26.968 62H25.968V63H26.968V62ZM53.08 56.24L52.361 55.545L52.355 55.5513L53.08 56.24ZM53.368 27.632L54.0936 26.9439L54.0933 26.9436L53.368 27.632ZM26.968 21.968V20.968H25.968V21.968H26.968ZM14.336 66.704L14.336 17.168H12.336L12.336 66.704H14.336ZM14.336 17.168C14.336 15.0363 14.8955 13.5667 15.8671 12.5951L14.4529 11.1809C12.9925 12.6413 12.336 14.6917 12.336 17.168H14.336ZM15.8671 12.5951C16.9119 11.5503 18.4213 10.968 20.536 10.968V8.96799C18.0427 8.96799 15.9681 9.66572 14.4529 11.1809L15.8671 12.5951ZM20.536 10.968L38.584 10.968V8.96799L20.536 8.96799V10.968ZM38.584 10.968C48.4204 10.968 56.3194 13.8741 62.3756 19.6214L63.7524 18.1706C57.2646 12.0139 48.8436 8.96799 38.584 8.96799V10.968ZM62.3833 19.6285C68.4936 25.3068 71.568 32.7423 71.568 42.032L73.568 42.032C73.568 32.2497 70.3064 24.2612 63.7447 18.1635L62.3833 19.6285ZM71.568 42.032C71.568 51.3217 68.4936 58.7572 62.3833 64.4355L63.7447 65.9005C70.3064 59.8028 73.568 51.8143 73.568 42.032L71.568 42.032ZM62.3796 64.4389C56.3238 70.124 48.4234 73 38.584 73V75C48.8406 75 57.2602 71.988 63.7484 65.8971L62.3796 64.4389ZM38.584 73H20.536V75H38.584V73ZM20.536 73C18.4076 73 16.8916 72.4417 15.8487 71.451L14.4713 72.901C15.9884 74.3423 18.0564 75 20.536 75V73ZM15.885 71.4873C14.8988 70.4492 14.336 68.9051 14.336 66.704H12.336C12.336 69.2389 12.9892 71.3428 14.435 72.8647L15.885 71.4873ZM26.968 63H38.584V61L26.968 61V63ZM38.584 63C44.8333 63 49.9418 60.9953 53.805 56.9287L52.355 55.5513C48.9222 59.1647 44.3668 61 38.584 61V63ZM53.799 56.935C57.7018 52.8976 59.648 47.9077 59.648 42.032H57.648C57.648 47.4203 55.8822 51.9024 52.361 55.545L53.799 56.935ZM59.648 42.032C59.648 35.9295 57.8165 30.8698 54.0936 26.9439L52.6424 28.3201C55.9595 31.8182 57.648 36.3585 57.648 42.032H59.648ZM54.0933 26.9436C50.2825 22.9286 45.0697 20.968 38.584 20.968V22.968C44.6423 22.968 49.2855 24.7834 52.6427 28.3204L54.0933 26.9436ZM38.584 20.968H26.968V22.968H38.584V20.968ZM25.968 21.968L25.968 62H27.968L27.968 21.968H25.968ZM119.586 33.104L118.879 33.8111L118.884 33.8162L119.586 33.104ZM91.7463 54.704V53.704H90.6163L90.7537 54.8255L91.7463 54.704ZM95.8743 62.48L95.2201 63.2364L95.231 63.2458L95.2421 63.2549L95.8743 62.48ZM114.498 62.864L114.989 63.7356L115.001 63.7287L115.013 63.7215L114.498 62.864ZM120.162 63.728L120.869 63.0209L120.869 63.0209L120.162 63.728ZM119.01 71.312L118.525 70.4378L118.514 70.4438L119.01 71.312ZM85.9863 68.432L85.289 69.1489L85.2941 69.1538L85.9863 68.432ZM85.7943 33.584L86.5111 34.2812L86.5158 34.2763L85.7943 33.584ZM91.5543 46.448L90.563 46.3158L90.4121 47.448H91.5543V46.448ZM114.402 46.448V47.448H115.471L115.4 46.3815L114.402 46.448ZM111.138 39.152L110.431 39.8591L110.431 39.8591L111.138 39.152ZM95.1063 39.152L95.8134 39.8591L95.8134 39.8591L95.1063 39.152ZM102.978 27.48C109.388 27.48 114.664 29.5959 118.879 33.8111L120.293 32.3969C115.677 27.7801 109.88 25.48 102.978 25.48V27.48ZM118.884 33.8162C123.109 37.98 125.21 43.0034 125.21 48.944H127.21C127.21 42.4686 124.895 36.932 120.288 32.3917L118.884 33.8162ZM125.21 48.944C125.21 50.6433 124.69 51.7594 123.786 52.4831C122.838 53.241 121.303 53.704 119.01 53.704V55.704C121.517 55.704 123.582 55.207 125.035 54.0449C126.53 52.8486 127.21 51.0847 127.21 48.944H125.21ZM119.01 53.704L91.7463 53.704V55.704L119.01 55.704V53.704ZM90.7537 54.8255C91.1675 58.2053 92.6625 61.0244 95.2201 63.2364L96.5284 61.7236C94.35 59.8396 93.093 57.4747 92.7388 54.5825L90.7537 54.8255ZM95.2421 63.2549C97.8839 65.41 101.192 66.456 105.09 66.456V64.456C101.565 64.456 98.7286 63.518 96.5064 61.7051L95.2421 63.2549ZM105.09 66.456C108.479 66.456 111.782 65.539 114.989 63.7356L114.008 61.9924C111.07 63.645 108.102 64.456 105.09 64.456V66.456ZM115.013 63.7215C115.469 63.4479 116.051 63.288 116.802 63.288V61.288C115.762 61.288 114.808 61.5121 113.984 62.0065L115.013 63.7215ZM116.802 63.288C117.8 63.288 118.67 63.65 119.455 64.4351L120.869 63.0209C119.734 61.886 118.365 61.288 116.802 61.288V63.288ZM119.455 64.4351C120.24 65.2202 120.602 66.0906 120.602 67.088H122.602C122.602 65.5254 122.004 64.1558 120.869 63.0209L119.455 64.4351ZM120.602 67.088C120.602 67.8548 120.426 68.4852 120.102 69.013C119.776 69.544 119.268 70.025 118.525 70.4378L119.496 72.1862C120.481 71.639 121.268 70.936 121.807 70.059C122.347 69.1788 122.602 68.1772 122.602 67.088H120.602ZM118.514 70.4438C114.201 72.9087 109.287 74.152 103.746 74.152V76.152C109.598 76.152 114.86 74.8353 119.506 72.1802L118.514 70.4438ZM103.746 74.152C96.806 74.152 91.1435 71.9918 86.6784 67.7102L85.2941 69.1538C90.173 73.8322 96.3505 76.152 103.746 76.152V74.152ZM86.6835 67.7151C82.2272 63.381 79.9783 57.7626 79.9783 50.768H77.9783C77.9783 58.2374 80.4013 64.395 85.289 69.1489L86.6835 67.7151ZM79.9783 50.768C79.9783 44.2326 82.1568 38.7582 86.5111 34.2812L85.0774 32.8868C80.3437 37.7538 77.9783 43.7354 77.9783 50.768H79.9783ZM86.5158 34.2763C90.8603 29.7483 96.3224 27.48 102.978 27.48V25.48C95.8101 25.48 89.8162 27.9477 85.0727 32.8917L86.5158 34.2763ZM91.5543 47.448H114.402V45.448H91.5543V47.448ZM115.4 46.3815C115.192 43.2674 114.006 40.6055 111.845 38.4449L110.431 39.8591C112.239 41.6665 113.228 43.8686 113.404 46.5145L115.4 46.3815ZM111.845 38.4449C109.632 36.2318 106.634 35.176 102.978 35.176V37.176C106.234 37.176 108.676 38.1042 110.431 39.8591L111.845 38.4449ZM102.978 35.176C99.4958 35.176 96.6014 36.2427 94.3991 38.4449L95.8134 39.8591C97.5791 38.0933 99.9327 37.176 102.978 37.176V35.176ZM94.3991 38.4449C92.2541 40.59 90.9749 43.2265 90.563 46.3158L92.5455 46.5802C92.9016 43.9095 93.9904 41.682 95.8134 39.8591L94.3991 38.4449ZM133.481 62.672L132.774 61.9649L132.774 61.9649L133.481 62.672ZM139.721 61.808L140.248 60.9586L140.222 60.9422L140.195 60.9275L139.721 61.808ZM157.865 57.776L157.356 58.6369L157.379 58.6504L157.402 58.6626L157.865 57.776ZM150.761 55.568L150.95 54.586L150.939 54.5839L150.928 54.5821L150.761 55.568ZM141.545 53.264L141.899 52.3287L141.878 52.3211L141.858 52.3143L141.545 53.264ZM137.705 30.704L137.073 29.9288L137.073 29.9288L137.705 30.704ZM166.793 30.608L166.269 31.4601L166.3 31.4788L166.331 31.4952L166.793 30.608ZM167.753 38L167.046 37.2929L167.046 37.2929L167.753 38ZM162.185 38.768L162.739 37.9359L162.726 37.9268L162.712 37.9181L162.185 38.768ZM146.249 36.944L145.753 36.0758L145.743 36.081L145.734 36.0865L146.249 36.944ZM146.249 43.088L145.767 43.9642L145.776 43.9691L145.785 43.9738L146.249 43.088ZM153.161 45.104L152.968 46.0853L152.978 46.0871L152.987 46.0888L153.161 45.104ZM162.473 47.504L162.812 46.5633L162.801 46.5595L162.473 47.504ZM166.409 71.024L167.018 71.8172L167.027 71.8103L166.409 71.024ZM134.633 70.64L135.154 69.7864L135.136 69.7758L135.118 69.7658L134.633 70.64ZM133.041 66.224C133.041 65.0702 133.423 64.1439 134.188 63.3791L132.774 61.9649C131.618 63.1201 131.041 64.5618 131.041 66.224H133.041ZM134.188 63.3791C135.03 62.5367 135.994 62.136 137.129 62.136V60.136C135.447 60.136 133.979 60.7593 132.774 61.9649L134.188 63.3791ZM137.129 62.136C137.85 62.136 138.552 62.3145 139.247 62.6885L140.195 60.9275C139.225 60.4055 138.199 60.136 137.129 60.136V62.136ZM139.193 62.6574C143.544 65.3605 147.917 66.744 152.297 66.744V64.744C148.357 64.744 144.345 63.5035 140.248 60.9586L139.193 62.6574ZM152.297 66.744C154.957 66.744 157.119 66.3475 158.646 65.4236C160.254 64.4508 161.073 62.9429 161.073 61.04H159.073C159.073 62.2731 158.595 63.1172 157.611 63.7124C156.546 64.3565 154.821 64.744 152.297 64.744V66.744ZM161.073 61.04C161.073 59.185 160.058 57.7924 158.327 56.8894L157.402 58.6626C158.616 59.2956 159.073 60.079 159.073 61.04H161.073ZM158.373 56.9151C156.808 55.9903 154.296 55.2295 150.95 54.586L150.572 56.55C153.881 57.1865 156.105 57.8977 157.356 58.6369L158.373 56.9151ZM150.928 54.5821C147.187 53.948 144.184 53.1934 141.899 52.3287L141.191 54.1993C143.642 55.1266 146.783 55.908 150.594 56.5539L150.928 54.5821ZM141.858 52.3143C138.996 51.3705 136.934 49.9612 135.581 48.1331C134.229 46.3076 133.521 43.9769 133.521 41.072H131.521C131.521 44.3111 132.316 47.0844 133.973 49.3229C135.628 51.5588 138.077 53.1735 141.232 54.2137L141.858 52.3143ZM133.521 41.072C133.521 37.3057 135.09 34.1245 138.336 31.4792L137.073 29.9288C133.408 32.9155 131.521 36.6463 131.521 41.072H133.521ZM138.336 31.4792C141.567 28.8465 145.931 27.48 151.529 27.48V25.48C145.607 25.48 140.754 26.9295 137.073 29.9288L138.336 31.4792ZM151.529 27.48C157.056 27.48 161.96 28.8128 166.269 31.4601L167.316 29.7559C162.666 26.8992 157.394 25.48 151.529 25.48V27.48ZM166.331 31.4952C166.992 31.8388 167.442 32.2625 167.733 32.7515C168.025 33.2421 168.193 33.8582 168.193 34.64H170.193C170.193 33.5658 169.96 32.5819 169.452 31.7285C168.943 30.8735 168.193 30.2092 167.254 29.7208L166.331 31.4952ZM168.193 34.64C168.193 35.6374 167.831 36.5078 167.046 37.2929L168.46 38.7071C169.595 37.5722 170.193 36.2026 170.193 34.64H168.193ZM167.046 37.2929C166.339 37.9992 165.507 38.344 164.489 38.344V40.344C166.031 40.344 167.374 39.7928 168.46 38.7071L167.046 37.2929ZM164.489 38.344C163.652 38.344 163.099 38.1756 162.739 37.9359L161.63 39.6C162.423 40.1284 163.405 40.344 164.489 40.344V38.344ZM162.712 37.9181C159.35 35.8339 155.647 34.792 151.625 34.792V36.792C155.282 36.792 158.619 37.7341 161.658 39.6179L162.712 37.9181ZM151.625 34.792C149.284 34.792 147.3 35.1913 145.753 36.0758L146.745 37.8122C147.885 37.1607 149.486 36.792 151.625 36.792V34.792ZM145.734 36.0865C144.193 37.0112 143.329 38.3725 143.329 40.112H145.329C145.329 39.1635 145.744 38.4128 146.763 37.8015L145.734 36.0865ZM143.329 40.112C143.329 41.8151 144.222 43.1145 145.767 43.9642L146.731 42.2118C145.716 41.6535 145.329 40.9689 145.329 40.112H143.329ZM145.785 43.9738C147.267 44.7502 149.695 45.4434 152.968 46.0853L153.353 44.1227C150.099 43.4846 147.919 42.8338 146.713 42.2022L145.785 43.9738ZM152.987 46.0888C156.202 46.6561 159.254 47.4431 162.144 48.4485L162.801 46.5595C159.804 45.5169 156.648 44.7039 153.335 44.1192L152.987 46.0888ZM162.133 48.4446C165.097 49.5141 167.241 51.0351 168.649 52.9653C170.054 54.8914 170.785 57.3063 170.785 60.272H172.785C172.785 56.9657 171.964 54.1166 170.265 51.7867C168.568 49.4609 166.056 47.7339 162.812 46.5634L162.133 48.4446ZM170.785 60.272C170.785 64.3007 169.147 67.6009 165.791 70.2377L167.027 71.8103C170.839 68.8151 172.785 64.9473 172.785 60.272H170.785ZM165.8 70.2308C162.445 72.8065 157.79 74.152 151.721 74.152V76.152C158.068 76.152 163.204 74.7455 167.018 71.8172L165.8 70.2308ZM151.721 74.152C145.418 74.152 139.907 72.6876 135.154 69.7864L134.112 71.4936C139.215 74.6084 145.096 76.152 151.721 76.152V74.152ZM135.118 69.7658C134.386 69.3587 133.879 68.8687 133.551 68.3098C133.223 67.7507 133.041 67.0673 133.041 66.224H131.041C131.041 67.3647 131.291 68.4093 131.826 69.3222C132.362 70.2353 133.152 70.9613 134.147 71.5142L135.118 69.7658ZM221.375 72.944L222.082 73.6511L222.082 73.6511L221.375 72.944ZM212.351 72.56L211.583 73.2011L211.589 73.2074L211.594 73.2136L212.351 72.56ZM198.719 56.24L199.486 55.5989L198.809 54.788L198.036 55.5089L198.719 56.24ZM192.959 61.616L192.276 60.8849L191.959 61.1814V61.616H192.959ZM191.135 72.848L190.428 72.1409L190.428 72.1409L191.135 72.848ZM182.495 72.848L181.769 73.5357L181.778 73.5456L181.788 73.5551L182.495 72.848ZM182.495 11.12L181.788 10.4129L181.778 10.4224L181.769 10.4323L182.495 11.12ZM191.135 11.12L190.409 11.8077L190.418 11.8176L190.428 11.8271L191.135 11.12ZM192.959 48.08H191.959V50.5199L193.671 48.7818L192.959 48.08ZM212.159 28.592L211.452 27.8849L211.446 27.8902L212.159 28.592ZM220.223 28.688L219.496 29.3746L219.506 29.385L219.516 29.3951L220.223 28.688ZM220.223 36.656L220.922 37.3713L220.93 37.3631L220.223 36.656ZM207.647 48.944L206.948 48.2288L206.263 48.8984L206.902 49.6117L207.647 48.944ZM221.855 64.784L221.11 65.4517L221.128 65.4719L221.148 65.4911L221.855 64.784ZM222.103 68.528C222.103 70.0839 221.612 71.2921 220.668 72.2369L222.082 73.6511C223.441 72.2919 224.103 70.5561 224.103 68.528H222.103ZM220.668 72.2369C219.715 73.1891 218.535 73.672 217.055 73.672V75.672C219.03 75.672 220.73 75.0029 222.082 73.6511L220.668 72.2369ZM217.055 73.672C215.415 73.672 214.127 73.0865 213.108 71.9064L211.594 73.2136C213.007 74.8495 214.855 75.672 217.055 75.672V73.672ZM213.118 71.9189L199.486 55.5989L197.951 56.8811L211.583 73.2011L213.118 71.9189ZM198.036 55.5089L192.276 60.8849L193.641 62.3471L199.401 56.9711L198.036 55.5089ZM191.959 61.616V68.528H193.959V61.616H191.959ZM191.959 68.528C191.959 69.917 191.463 71.1054 190.428 72.1409L191.842 73.5551C193.238 72.1586 193.959 70.467 193.959 68.528H191.959ZM190.428 72.1409C189.392 73.1764 188.204 73.672 186.815 73.672V75.672C188.754 75.672 190.445 74.9516 191.842 73.5551L190.428 72.1409ZM186.815 73.672C185.426 73.672 184.237 73.1764 183.202 72.1409L181.788 73.5551C183.184 74.9516 184.876 75.672 186.815 75.672V73.672ZM183.221 72.1603C182.243 71.1286 181.767 69.9342 181.767 68.528H179.767C179.767 70.4498 180.442 72.1354 181.769 73.5357L183.221 72.1603ZM181.767 68.528V15.44H179.767V68.528H181.767ZM181.767 15.44C181.767 14.0338 182.243 12.8394 183.221 11.8077L181.769 10.4323C180.442 11.8326 179.767 13.5182 179.767 15.44H181.767ZM183.202 11.8271C184.229 10.7997 185.447 10.296 186.911 10.296V8.296C184.919 8.296 183.192 9.00834 181.788 10.4129L183.202 11.8271ZM186.911 10.296C188.298 10.296 189.444 10.7896 190.409 11.8077L191.861 10.4323C190.521 9.01841 188.851 8.296 186.911 8.296V10.296ZM190.428 11.8271C191.463 12.8626 191.959 14.051 191.959 15.44H193.959C193.959 13.501 193.238 11.8094 191.842 10.4129L190.428 11.8271ZM191.959 15.44V48.08H193.959V15.44H191.959ZM193.671 48.7818L212.871 29.2938L211.446 27.8902L192.246 47.3782L193.671 48.7818ZM212.866 29.2991C213.758 28.4068 214.844 27.96 216.191 27.96V25.96C214.337 25.96 212.735 26.6012 211.452 27.8849L212.866 29.2991ZM216.191 27.96C217.519 27.96 218.599 28.4248 219.496 29.3746L220.95 28.0014C219.671 26.6472 218.063 25.96 216.191 25.96V27.96ZM219.516 29.3951C220.416 30.2959 220.855 31.3537 220.855 32.624H222.855C222.855 30.8223 222.205 29.2561 220.93 27.9809L219.516 29.3951ZM220.855 32.624C220.855 33.9706 220.408 35.0566 219.516 35.9489L220.93 37.3631C222.214 36.0794 222.855 34.4774 222.855 32.624H220.855ZM219.524 35.9407L206.948 48.2288L208.346 49.6592L220.922 37.3712L219.524 35.9407ZM206.902 49.6117L221.11 65.4517L222.599 64.1163L208.391 48.2763L206.902 49.6117ZM221.148 65.4911C221.726 66.0694 222.103 67.0181 222.103 68.528H224.103C224.103 66.7099 223.648 65.1626 222.562 64.0769L221.148 65.4911ZM254.03 74.192L253.729 73.2384L253.705 73.2458L253.682 73.2543L254.03 74.192ZM237.902 71.888L237.205 72.6053L237.205 72.6053L237.902 71.888ZM234.542 38.288H235.542V37.288H234.542V38.288ZM227.726 36.752L227.019 37.4591L227.029 37.4698L227.04 37.4802L227.726 36.752ZM227.726 29.264L227.019 28.5569L227.019 28.5569L227.726 29.264ZM234.542 27.632V28.632H235.542V27.632H234.542ZM236.366 16.112L237.073 16.8191L237.073 16.8191L236.366 16.112ZM245.006 16.112L244.28 16.7997L244.289 16.8095L244.299 16.8191L245.006 16.112ZM246.83 27.632H245.83V28.632H246.83V27.632ZM255.374 29.264L254.646 29.9494L254.656 29.9604L254.667 29.9711L255.374 29.264ZM255.374 36.752L256.081 37.4591L256.092 37.4484L256.102 37.4374L255.374 36.752ZM246.83 38.288V37.288H245.83V38.288H246.83ZM247.886 62.96L247.079 63.5514L247.102 63.582L247.126 63.6108L247.886 62.96ZM252.11 64.208L252.251 65.1979L252.251 65.1979L252.11 64.208ZM252.974 64.112L253.019 63.113L252.996 63.112H252.974V64.112ZM256.334 65.744L255.558 66.3746L255.579 66.4012L255.603 66.4263L256.334 65.744ZM256.678 69.392C256.678 70.4366 256.419 71.2191 255.97 71.8109C255.517 72.407 254.801 72.8999 253.729 73.2384L254.331 75.1456C255.691 74.7161 256.799 74.025 257.562 73.0211C258.328 72.0129 258.678 70.7794 258.678 69.392H256.678ZM253.682 73.2543C252.097 73.8413 250.11 74.152 247.694 74.152V76.152C250.269 76.152 252.506 75.8227 254.377 75.1297L253.682 73.2543ZM247.694 74.152C243.567 74.152 240.591 73.1066 238.599 71.1707L237.205 72.6053C239.692 75.0214 243.244 76.152 247.694 76.152V74.152ZM238.599 71.1707C236.607 69.2365 235.542 66.3937 235.542 62.48H233.542C233.542 66.7583 234.716 70.1875 237.205 72.6053L238.599 71.1707ZM235.542 62.48V38.288H233.542V62.48H235.542ZM234.542 37.288H231.566V39.288H234.542V37.288ZM231.566 37.288C230.353 37.288 229.317 36.8761 228.411 36.0238L227.04 37.4802C228.311 38.6759 229.835 39.288 231.566 39.288V37.288ZM228.433 36.0449C227.6 35.2119 227.19 34.2197 227.19 33.008H225.19C225.19 34.7403 225.804 36.2441 227.019 37.4591L228.433 36.0449ZM227.19 33.008C227.19 31.7963 227.6 30.8041 228.433 29.9711L227.019 28.5569C225.804 29.7719 225.19 31.2757 225.19 33.008H227.19ZM228.433 29.9711C229.343 29.0612 230.372 28.632 231.566 28.632V26.632C229.815 26.632 228.285 27.2908 227.019 28.5569L228.433 29.9711ZM231.566 28.632H234.542V26.632H231.566V28.632ZM235.542 27.632V20.432H233.542V27.632H235.542ZM235.542 20.432C235.542 19.043 236.037 17.8546 237.073 16.8191L235.659 15.4049C234.262 16.8014 233.542 18.493 233.542 20.432H235.542ZM237.073 16.8191C238.1 15.7917 239.318 15.288 240.782 15.288V13.288C238.79 13.288 237.063 14.0003 235.659 15.4049L237.073 16.8191ZM240.782 15.288C242.169 15.288 243.315 15.7816 244.28 16.7997L245.732 15.4243C244.392 14.0104 242.722 13.288 240.782 13.288V15.288ZM244.299 16.8191C245.334 17.8546 245.83 19.043 245.83 20.432H247.83C247.83 18.493 247.109 16.8014 245.713 15.4049L244.299 16.8191ZM245.83 20.432V27.632H247.83V20.432H245.83ZM246.83 28.632H251.63V26.632H246.83V28.632ZM251.63 28.632C252.821 28.632 253.807 29.0587 254.646 29.9494L256.102 28.5786C254.892 27.2933 253.382 26.632 251.63 26.632V28.632ZM254.667 29.9711C255.5 30.8041 255.91 31.7963 255.91 33.008H257.91C257.91 31.2757 257.296 29.7719 256.081 28.5569L254.667 29.9711ZM255.91 33.008C255.91 34.1446 255.507 35.1517 254.646 36.0666L256.102 37.4374C257.289 36.1763 257.91 34.6874 257.91 33.008H255.91ZM254.667 36.0449C253.834 36.8779 252.841 37.288 251.63 37.288V39.288C253.362 39.288 254.866 38.6741 256.081 37.4591L254.667 36.0449ZM251.63 37.288L246.83 37.288V39.288L251.63 39.288V37.288ZM245.83 38.288V59.216H247.83V38.288H245.83ZM245.83 59.216C245.83 60.9029 246.217 62.3759 247.079 63.5514L248.692 62.3686C248.146 61.6241 247.83 60.6011 247.83 59.216H245.83ZM247.126 63.6108C248.102 64.7488 249.414 65.304 250.958 65.304V63.304C249.942 63.304 249.206 62.9632 248.645 62.3092L247.126 63.6108ZM250.958 65.304C251.34 65.304 251.774 65.2661 252.251 65.1979L251.968 63.218C251.55 63.2779 251.216 63.304 250.958 63.304V65.304ZM252.251 65.1979C252.47 65.1667 252.643 65.1443 252.772 65.1299C252.837 65.1227 252.887 65.1179 252.924 65.1151C252.965 65.112 252.978 65.112 252.974 65.112V63.112C252.76 63.112 252.396 63.157 251.968 63.2181L252.251 65.1979ZM252.928 65.111C254.073 65.163 254.919 65.5885 255.558 66.3746L257.11 65.1134C256.085 63.8515 254.69 63.189 253.019 63.113L252.928 65.111ZM255.603 66.4263C256.305 67.1783 256.678 68.1402 256.678 69.392H258.678C258.678 67.6998 258.155 66.2297 257.065 65.0617L255.603 66.4263ZM268.323 33.488L267.606 32.7908L267.601 32.7959L268.323 33.488ZM303.843 33.488L303.121 34.1801L303.126 34.1852L303.843 33.488ZM303.843 68.144L303.126 67.4468L303.121 67.4519L303.843 68.144ZM268.323 68.144L269.045 67.4519L269.045 67.4519L268.323 68.144ZM294.723 41.168L293.961 41.8156L293.961 41.8156L294.723 41.168ZM277.443 41.168L276.681 40.5203L276.68 40.5221L277.443 41.168ZM277.443 60.464L276.672 61.1004L276.677 61.1061L276.681 61.1116L277.443 60.464ZM294.723 60.464L293.961 59.8164L293.961 59.8164L294.723 60.464ZM262.603 50.768C262.603 44.1615 264.755 38.6544 269.045 34.1801L267.601 32.7959C262.932 37.6656 260.603 43.6785 260.603 50.768H262.603ZM269.04 34.1852C273.372 29.7308 279.022 27.48 286.083 27.48V25.48C278.553 25.48 272.362 27.9012 267.606 32.7908L269.04 34.1852ZM286.083 27.48C293.212 27.48 298.857 29.7325 303.121 34.1801L304.565 32.7959C299.87 27.8995 293.675 25.48 286.083 25.48V27.48ZM303.126 34.1852C307.479 38.6603 309.659 44.1658 309.659 50.768H311.659C311.659 43.6742 309.296 37.6597 304.56 32.7908L303.126 34.1852ZM309.659 50.768C309.659 57.437 307.477 62.9736 303.126 67.4468L304.56 68.8412C309.297 63.9704 311.659 57.923 311.659 50.768H309.659ZM303.121 67.4519C298.857 71.8995 293.212 74.152 286.083 74.152V76.152C293.675 76.152 299.87 73.7325 304.565 68.8361L303.121 67.4519ZM286.083 74.152C278.955 74.152 273.31 71.8995 269.045 67.4519L267.601 68.8361C272.297 73.7325 278.492 76.152 286.083 76.152V74.152ZM269.045 67.4519C264.756 62.9795 262.603 57.4413 262.603 50.768H260.603C260.603 57.9187 262.93 63.9645 267.601 68.8361L269.045 67.4519ZM298.987 50.768C298.987 46.7267 297.837 43.2868 295.485 40.5204L293.961 41.8156C295.962 44.1692 296.987 47.1293 296.987 50.768H298.987ZM295.485 40.5204C293.105 37.7204 289.938 36.328 286.083 36.328V38.328C289.396 38.328 291.989 39.4956 293.961 41.8156L295.485 40.5204ZM286.083 36.328C282.228 36.328 279.061 37.7204 276.681 40.5204L278.205 41.8156C280.177 39.4956 282.77 38.328 286.083 38.328V36.328ZM276.68 40.5221C274.387 43.2322 273.275 46.6755 273.275 50.768H275.275C275.275 47.0525 276.276 44.0958 278.207 41.8139L276.68 40.5221ZM273.275 50.768C273.275 54.8613 274.387 58.3307 276.672 61.1004L278.215 59.8276C276.276 57.4773 275.275 54.4827 275.275 50.768H273.275ZM276.681 61.1116C279.061 63.9116 282.228 65.304 286.083 65.304V63.304C282.77 63.304 280.177 62.1364 278.205 59.8164L276.681 61.1116ZM286.083 65.304C289.938 65.304 293.105 63.9116 295.485 61.1116L293.961 59.8164C291.989 62.1364 289.396 63.304 286.083 63.304V65.304ZM295.485 61.1116C297.839 58.3422 298.987 54.8687 298.987 50.768H296.987C296.987 54.4753 295.959 57.4658 293.961 59.8164L295.485 61.1116ZM360.984 33.008L360.229 33.6634L360.234 33.6696L360.984 33.008ZM360.984 68.624L360.23 67.9678L360.229 67.9686L360.984 68.624ZM331.896 68.048L332.678 67.4246L330.896 65.1897V68.048H331.896ZM330.072 90.512L329.365 89.8049L329.356 89.8144L329.346 89.8243L330.072 90.512ZM321.432 90.512L320.706 91.1997L320.716 91.2096L320.725 91.2191L321.432 90.512ZM321.432 28.688L320.707 27.9992L320.706 28.0003L321.432 28.688ZM330.168 28.688L329.443 29.3767L329.452 29.386L329.461 29.3951L330.168 28.688ZM331.992 33.392H330.992V36.2662L332.776 34.0127L331.992 33.392ZM350.808 41.072L350.045 41.7179L350.05 41.7236L350.054 41.7291L350.808 41.072ZM336.408 38.864L336.867 39.7526L336.867 39.7526L336.408 38.864ZM331.896 42.608L331.075 42.0369L330.896 42.2944V42.608H331.896ZM331.896 59.024H330.896V59.3376L331.075 59.5951L331.896 59.024ZM336.408 62.768L335.95 63.6567L335.961 63.6624L336.408 62.768ZM350.808 60.56L350.054 59.9029L350.05 59.9084L350.045 59.9141L350.808 60.56ZM360.234 33.6696C363.871 37.791 365.744 43.4511 365.744 50.768H367.744C367.744 43.1089 365.778 36.929 361.734 32.3464L360.234 33.6696ZM365.744 50.768C365.744 58.0841 363.871 63.78 360.23 67.9678L361.739 69.2802C365.777 64.636 367.744 58.4279 367.744 50.768H365.744ZM360.229 67.9686C356.654 72.0883 352.009 74.152 346.2 74.152V76.152C352.552 76.152 357.762 73.8637 361.74 69.2794L360.229 67.9686ZM346.2 74.152C340.762 74.152 336.276 71.9368 332.678 67.4246L331.114 68.6714C335.069 73.6312 340.118 76.152 346.2 76.152V74.152ZM330.896 68.048V86.192H332.896V68.048H330.896ZM330.896 86.192C330.896 87.581 330.401 88.7694 329.365 89.8049L330.779 91.2191C332.176 89.8226 332.896 88.131 332.896 86.192H330.896ZM329.346 89.8243C328.382 90.8424 327.236 91.336 325.848 91.336V93.336C327.789 93.336 329.459 92.6136 330.798 91.1997L329.346 89.8243ZM325.848 91.336C324.384 91.336 323.167 90.8323 322.139 89.8049L320.725 91.2191C322.13 92.6237 323.856 93.336 325.848 93.336V91.336ZM322.158 89.8243C321.181 88.7926 320.704 87.5982 320.704 86.192H318.704C318.704 88.1138 319.38 89.7994 320.706 91.1997L322.158 89.8243ZM320.704 86.192V33.104H318.704V86.192H320.704ZM320.704 33.104C320.704 31.6229 321.188 30.3996 322.158 29.3757L320.706 28.0003C319.372 29.4084 318.704 31.1291 318.704 33.104H320.704ZM322.157 29.3767C323.189 28.2906 324.401 27.768 325.848 27.768V25.768C323.839 25.768 322.107 26.5254 320.707 27.9992L322.157 29.3767ZM325.848 27.768C327.22 27.768 328.403 28.2819 329.443 29.3767L330.893 27.9992C329.501 26.5341 327.805 25.768 325.848 25.768V27.768ZM329.461 29.3951C330.489 30.4226 330.992 31.6398 330.992 33.104H332.992C332.992 31.1122 332.28 29.3854 330.875 27.9809L329.461 29.3951ZM330.992 33.104V33.392H332.992V33.104H330.992ZM332.776 34.0127C336.237 29.6417 340.685 27.48 346.2 27.48V25.48C340.067 25.48 335.044 27.9263 331.208 32.7713L332.776 34.0127ZM346.2 27.48C352.009 27.48 356.654 29.5436 360.229 33.6634L361.74 32.3526C357.762 27.7683 352.552 25.48 346.2 25.48V27.48ZM355.072 50.768C355.072 46.6087 353.927 43.1276 351.562 40.4149L350.054 41.7291C352.042 44.0084 353.072 46.9913 353.072 50.768H355.072ZM351.572 40.4261C349.254 37.6867 346.149 36.328 342.36 36.328V38.328C345.612 38.328 348.139 39.4653 350.045 41.7179L351.572 40.4261ZM342.36 36.328C340.198 36.328 338.057 36.8875 335.95 37.9754L336.867 39.7526C338.727 38.7925 340.555 38.328 342.36 38.328V36.328ZM335.95 37.9754C333.856 39.0561 332.213 40.4023 331.075 42.0369L332.717 43.1791C333.628 41.8697 334.993 40.7199 336.867 39.7526L335.95 37.9754ZM330.896 42.608V59.024H332.896V42.608H330.896ZM331.075 59.5951C332.213 61.2297 333.856 62.5759 335.95 63.6566L336.867 61.8794C334.993 60.9121 333.628 59.7623 332.717 58.4529L331.075 59.5951ZM335.961 63.6624C338.121 64.7426 340.258 65.304 342.36 65.304V63.304C340.623 63.304 338.791 62.8414 336.855 61.8736L335.961 63.6624ZM342.36 65.304C346.149 65.304 349.254 63.9453 351.572 61.2059L350.045 59.9141C348.139 62.1667 345.612 63.304 342.36 63.304V65.304ZM351.562 61.2171C353.929 58.5015 355.072 54.9867 355.072 50.768H353.072C353.072 54.6133 352.039 57.6265 350.054 59.9029L351.562 61.2171Z" fill="#FAFAFA"/>
</g>
<defs>
<filter id="filter0_d_602_311" x="0.335938" y="0.295898" width="379.408" height="109.04" filterUnits="userSpaceOnUse" color-interpolation-filters="sRGB">
<feFlood flood-opacity="0" result="BackgroundImageFix"/>
<feColorMatrix in="SourceAlpha" type="matrix" values="0 0 0 0 0 0 0 0 0 0 0 0 0 0 0 0 0 0 127 0" result="hardAlpha"/>
<feOffset dy="4"/>
<feGaussianBlur stdDeviation="6.5"/>
<feComposite in2="hardAlpha" operator="out"/>
<feColorMatrix type="matrix" values="0 0 0 0 1 0 0 0 0 1 0 0 0 0 1 0 0 0 0.25 0"/>
<feBlend mode="normal" in2="BackgroundImageFix" result="effect1_dropShadow_602_311"/>
<feBlend mode="normal" in="SourceGraphic" in2="effect1_dropShadow_602_311" result="shape"/>
</filter>
</defs>
</svg>
