<svg width="461" height="94" viewBox="0 0 461 94" fill="none" xmlns="http://www.w3.org/2000/svg">
<g filter="url(#filter0_d_602_318)">
<path d="M70.864 67.8L70.2297 67.0269L70.222 67.0332L70.2144 67.0397L70.864 67.8ZM47.344 76.248V75.2479L47.3305 75.2481L47.344 76.248ZM23.056 66.936L22.3665 67.6603L22.37 67.6636L23.056 66.936ZM13.264 43.032L14.2639 43.0453L14.2641 43.0321L14.2639 43.0188L13.264 43.032ZM23.056 19.128L23.7381 19.8593L23.7418 19.8558L23.056 19.128ZM47.344 9.912L47.3306 10.912H47.344V9.912ZM68.752 17.976L69.4417 17.2519L69.434 17.2446L69.4263 17.2375L68.752 17.976ZM68.944 27.288L69.6511 27.9951L69.6602 27.986L69.669 27.9767L68.944 27.288ZM60.016 27.288L60.7231 26.5809L60.7167 26.5746L60.016 27.288ZM32.944 28.056L32.2199 27.3663L32.2196 27.3666L32.944 28.056ZM32.944 58.104L32.2141 58.7876L32.2197 58.7935L32.2254 58.7994L32.944 58.104ZM60.976 59.16L61.6493 59.8993L61.976 59.6018V59.16H60.976ZM60.976 51.48H61.976V50.48H60.976V51.48ZM45.04 49.752L44.3329 50.4591L44.3424 50.4687L44.3523 50.478L45.04 49.752ZM45.04 41.4L44.3329 40.6929L44.3233 40.7024L44.314 40.7123L45.04 41.4ZM72.784 41.4L72.0581 42.0877L72.0673 42.0975L72.0769 42.1071L72.784 41.4ZM73.608 46.2V58.968H75.608V46.2H73.608ZM73.608 58.968C73.608 62.5714 72.4496 65.2055 70.2297 67.0269L71.4983 68.5731C74.2704 66.2985 75.608 63.0445 75.608 58.968H73.608ZM70.2144 67.0397C63.8128 72.5091 56.2063 75.248 47.344 75.248V77.248C56.6577 77.248 64.7312 74.3549 71.5136 68.5603L70.2144 67.0397ZM47.3305 75.2481C38.1108 75.3727 30.2677 72.3612 23.742 66.2084L22.37 67.6636C29.2843 74.1828 37.6332 77.3793 47.3575 77.2479L47.3305 75.2481ZM23.7455 66.2117C17.3011 60.0771 14.1394 52.381 14.2639 43.0453L12.2641 43.0187C12.1326 52.883 15.4989 61.1229 22.3665 67.6603L23.7455 66.2117ZM14.2639 43.0188C14.1393 33.5508 17.3037 25.8606 23.7381 19.8593L22.3739 18.3967C15.4963 24.8114 12.1327 33.0571 12.2641 43.0452L14.2639 43.0188ZM23.7418 19.8558C30.2001 13.7701 38.0418 10.7872 47.3306 10.9119L47.3574 8.91209C37.5742 8.78077 29.2239 11.9419 22.3702 18.4002L23.7418 19.8558ZM47.344 10.912C55.4926 10.912 62.3842 13.516 68.0777 18.7145L69.4263 17.2375C63.3439 11.684 55.9634 8.912 47.344 8.912V10.912ZM68.0623 18.7001C69.2006 19.7842 69.768 21.119 69.768 22.776H71.768C71.768 20.5929 70.9914 18.7278 69.4417 17.2519L68.0623 18.7001ZM69.768 22.776C69.768 24.2415 69.2627 25.5006 68.219 26.5993L69.669 27.9767C71.0573 26.5154 71.768 24.7665 71.768 22.776H69.768ZM68.2369 26.5809C67.217 27.6007 65.9712 28.112 64.432 28.112V30.112C66.4768 30.112 68.239 29.4073 69.6511 27.9951L68.2369 26.5809ZM64.432 28.112C62.9678 28.112 61.7506 27.6083 60.7231 26.5809L59.3089 27.9951C60.7135 29.3997 62.4402 30.112 64.432 30.112V28.112ZM60.7167 26.5746C56.9526 22.8776 52.4795 21.008 47.344 21.008L47.344 23.008C51.9365 23.008 55.9115 24.6584 59.3153 28.0014L60.7167 26.5746ZM47.344 21.008C41.321 21.008 36.2558 23.1286 32.2199 27.3663L33.6681 28.7457C37.3122 24.9194 41.8471 23.008 47.344 23.008L47.344 21.008ZM32.2196 27.3666C28.2486 31.5396 26.28 36.7869 26.28 43.032H28.28C28.28 37.2451 30.0874 32.5084 33.6684 28.7454L32.2196 27.3666ZM26.28 43.032C26.28 49.2772 28.2484 54.553 32.2141 58.7876L33.6739 57.4204C30.0876 53.591 28.28 48.8188 28.28 43.032H26.28ZM32.2254 58.7994C36.2627 62.9713 41.3262 65.056 47.344 65.056V63.056C41.8418 63.056 37.3053 61.1727 33.6626 57.4086L32.2254 58.7994ZM47.344 65.056C53.0609 65.056 57.8561 63.3539 61.6493 59.8993L60.3027 58.4207C56.9279 61.4941 52.6351 63.056 47.344 63.056V65.056ZM61.976 59.16V51.48H59.976V59.16H61.976ZM60.976 50.48H49.264V52.48H60.976V50.48ZM49.264 50.48C47.9328 50.48 46.7676 50.0112 45.7277 49.026L44.3523 50.478C45.7444 51.7968 47.3952 52.48 49.264 52.48V50.48ZM45.7471 49.0449C44.7788 48.0766 44.312 46.9534 44.312 45.624H42.312C42.312 47.4946 42.9972 49.1234 44.3329 50.4591L45.7471 49.0449ZM44.312 45.624C44.312 44.2928 44.7808 43.1276 45.766 42.0877L44.314 40.7123C42.9952 42.1044 42.312 43.7552 42.312 45.624H44.312ZM45.7471 42.1071C46.7911 41.0631 47.9504 40.576 49.264 40.576V38.576C47.3776 38.576 45.7209 39.3049 44.3329 40.6929L45.7471 42.1071ZM49.264 40.576H68.08V38.576H49.264V40.576ZM68.08 40.576C69.8443 40.576 71.1296 41.1077 72.0581 42.0877L73.51 40.7123C72.1344 39.2603 70.2837 38.576 68.08 38.576V40.576ZM72.0769 42.1071C73.0763 43.1065 73.608 44.437 73.608 46.2H75.608C75.608 43.9949 74.9237 42.1255 73.4911 40.6929L72.0769 42.1071ZM123.35 73.848L122.625 73.1592L122.624 73.1603L123.35 73.848ZM114.902 74.136L114.237 74.8834L114.247 74.8923L114.258 74.9009L114.902 74.136ZM112.886 70.2L113.879 70.0809L113.6 67.7577L112.113 69.5647L112.886 70.2ZM87.0618 72.024L87.7063 71.2595L87.0618 72.024ZM86.9658 49.848L87.5808 50.6366L87.5904 50.6289L86.9658 49.848ZM112.982 51.672L112.206 52.3031L113.982 54.4857V51.672H112.982ZM110.198 39.576L109.593 40.3727L110.198 39.576ZM92.5338 40.536L92.0097 39.6843L92.0032 39.6883L91.9969 39.6923L92.5338 40.536ZM86.8698 39.864L86.1387 40.5463L86.1505 40.5589L86.1626 40.5711L86.8698 39.864ZM87.7337 32.472L88.2537 33.3262L88.2688 33.317L88.2836 33.3073L87.7337 32.472ZM119.51 31.608L120.108 30.8064L120.105 30.8047L119.51 31.608ZM112.982 63.864L113.786 64.4579L113.982 64.1931V63.864H112.982ZM112.982 58.104H113.982V57.7749L113.786 57.5101L112.982 58.104ZM96.8538 55.992L96.244 55.1994L96.2365 55.2052L96.2291 55.2111L96.8538 55.992ZM96.8538 66.072L96.2291 66.8529L96.2461 66.8665L96.2637 66.8794L96.8538 66.072ZM124.174 45.048V69.336H126.174V45.048H124.174ZM124.174 69.336C124.174 70.8015 123.668 72.0606 122.625 73.1592L124.075 74.5368C125.463 73.0754 126.174 71.3265 126.174 69.336H124.174ZM122.624 73.1603C121.667 74.1699 120.493 74.672 119.03 74.672V76.672C121.023 76.672 122.728 75.9581 124.076 74.5357L122.624 73.1603ZM119.03 74.672C117.738 74.672 116.588 74.249 115.546 73.3711L114.258 74.9009C115.647 76.071 117.249 76.672 119.03 76.672V74.672ZM115.566 73.3886C114.606 72.5348 114.043 71.4504 113.879 70.0809L111.893 70.3191C112.113 72.1496 112.894 73.6892 114.237 74.8834L115.566 73.3886ZM112.113 69.5647C109.087 73.2439 104.543 75.152 98.2937 75.152V77.152C104.973 77.152 110.156 75.0921 113.658 70.8353L112.113 69.5647ZM98.2937 75.152C94.3084 75.152 90.7921 73.8612 87.7063 71.2595L86.4172 72.7885C89.8594 75.6908 93.8311 77.152 98.2937 77.152V75.152ZM87.7063 71.2595C84.6941 68.7197 83.1657 65.2696 83.1657 60.792H81.1657C81.1657 65.7864 82.9014 69.8243 86.4172 72.7885L87.7063 71.2595ZM83.1657 60.792C83.1657 56.237 84.6695 52.9073 87.5808 50.6365L86.3507 49.0595C82.862 51.7807 81.1657 55.747 81.1657 60.792H83.1657ZM87.5904 50.6289C90.6017 48.2199 94.1537 47.008 98.2937 47.008V45.008C93.7298 45.008 89.7298 46.3561 86.3411 49.0671L87.5904 50.6289ZM98.2937 47.008C104.834 47.008 109.389 48.8404 112.206 52.3031L113.757 51.0409C110.431 46.9516 105.194 45.008 98.2937 45.008V47.008ZM113.982 51.672V45.24H111.982V51.672H113.982ZM113.982 45.24C113.982 42.5652 112.912 40.38 110.802 38.7793L109.593 40.3727C111.195 41.588 111.982 43.1788 111.982 45.24H113.982ZM110.802 38.7793C108.724 37.2028 106.027 36.464 102.806 36.464V38.464C105.729 38.464 107.959 39.1332 109.593 40.3727L110.802 38.7793ZM102.806 36.464C99.0808 36.464 95.4774 37.5504 92.0097 39.6843L93.0578 41.3877C96.2461 39.4256 99.4907 38.464 102.806 38.464V36.464ZM91.9969 39.6923C91.4652 40.0306 90.8542 40.208 90.1338 40.208V42.208C91.2053 42.208 92.1943 41.9373 93.0706 41.3797L91.9969 39.6923ZM90.1338 40.208C89.1159 40.208 88.2832 39.8632 87.5769 39.1569L86.1626 40.5711C87.2483 41.6568 88.5916 42.208 90.1338 42.208V40.208ZM87.6008 39.1817C86.8727 38.4015 86.5257 37.5235 86.5257 36.504H84.5257C84.5257 38.0445 85.0748 39.4065 86.1387 40.5463L87.6008 39.1817ZM86.5257 36.504C86.5257 35.044 87.094 34.0321 88.2537 33.3262L87.2138 31.6178C85.4295 32.7039 84.5257 34.38 84.5257 36.504H86.5257ZM88.2836 33.3073C93.1668 30.093 98.7014 28.48 104.918 28.48V26.48C98.3341 26.48 92.4128 28.195 87.1839 31.6367L88.2836 33.3073ZM104.918 28.48C110.784 28.48 115.42 29.8209 118.914 32.4113L120.105 30.8047C116.175 27.8911 111.083 26.48 104.918 26.48V28.48ZM118.912 32.4096C122.361 34.9818 124.174 39.1146 124.174 45.048H126.174C126.174 38.6934 124.211 33.8662 120.108 30.8064L118.912 32.4096ZM113.982 63.864V58.104H111.982V63.864H113.982ZM113.786 57.5101C111.551 54.4815 107.928 53.072 103.19 53.072V55.072C107.54 55.072 110.445 56.3505 112.177 58.6978L113.786 57.5101ZM103.19 53.072C100.459 53.072 98.1185 53.7575 96.244 55.1994L97.4635 56.7846C98.917 55.6665 100.801 55.072 103.19 55.072V53.072ZM96.2291 55.2111C94.3835 56.6876 93.4538 58.6751 93.4538 61.08H95.4538C95.4538 59.2609 96.124 57.8564 97.4784 56.7729L96.2291 55.2111ZM93.4538 61.08C93.4538 63.432 94.392 65.3832 96.2291 66.8529L97.4784 65.2911C96.1155 64.2008 95.4538 62.824 95.4538 61.08H93.4538ZM96.2637 66.8794C98.1367 68.2481 100.47 68.896 103.19 68.896V66.896C100.79 66.896 98.8988 66.3279 97.4438 65.2646L96.2637 66.8794ZM103.19 68.896C107.928 68.896 111.551 67.4865 113.786 64.4579L112.177 63.2701C110.445 65.6175 107.54 66.896 103.19 66.896V68.896ZM205.235 73.848L205.942 74.5551L205.235 73.848ZM196.595 73.848L195.888 74.5551L196.595 73.848ZM178.259 43.704L177.452 43.1133L177.259 43.3771V43.704H178.259ZM176.435 73.848L177.142 74.5551L176.435 73.848ZM167.795 73.848L167.088 74.5551L167.795 73.848ZM153.683 39.96L154.193 40.8203L154.204 40.8134L154.216 40.8062L153.683 39.96ZM149.459 43.8L148.643 43.222L148.459 43.4817V43.8H149.459ZM147.635 73.848L146.928 73.1409L146.918 73.1504L146.909 73.1603L147.635 73.848ZM138.995 73.848L138.269 74.5357L138.278 74.5456L138.288 74.5551L138.995 73.848ZM138.995 29.688L138.288 28.9809L138.278 28.9904L138.269 29.0003L138.995 29.688ZM147.731 29.688L148.438 28.9809L147.731 29.688ZM149.555 34.584H148.555V37.5241L150.347 35.1937L149.555 34.584ZM155.603 29.784L155.124 28.9061L155.115 28.9108L155.603 29.784ZM177.491 35.928L176.544 36.2507L177.209 38.2002L178.33 36.4722L177.491 35.928ZM184.211 29.976L184.688 30.8546L184.696 30.8507L184.703 30.8466L184.211 29.976ZM203.507 31.032L202.79 31.7294L202.8 31.7391L203.507 31.032ZM206.059 41.496V69.528H208.059V41.496H206.059ZM206.059 69.528C206.059 70.917 205.563 72.1054 204.528 73.1409L205.942 74.5551C207.338 73.1586 208.059 71.467 208.059 69.528H206.059ZM204.528 73.1409C203.492 74.1764 202.304 74.672 200.915 74.672V76.672C202.854 76.672 204.545 75.9516 205.942 74.5551L204.528 73.1409ZM200.915 74.672C199.526 74.672 198.337 74.1764 197.302 73.1409L195.888 74.5551C197.284 75.9516 198.976 76.672 200.915 76.672V74.672ZM197.302 73.1409C196.266 72.1054 195.771 70.917 195.771 69.528H193.771C193.771 71.467 194.491 73.1586 195.888 74.5551L197.302 73.1409ZM195.771 69.528V45.72H193.771V69.528H195.771ZM195.771 45.72C195.771 43.1179 195.164 40.9802 193.773 39.493C192.371 37.9932 190.335 37.328 187.859 37.328V39.328C189.991 39.328 191.411 39.8948 192.312 40.859C193.226 41.8358 193.771 43.3941 193.771 45.72H195.771ZM187.859 37.328C183.705 37.328 180.226 39.3236 177.452 43.1133L179.066 44.2947C181.539 40.9164 184.46 39.328 187.859 39.328V37.328ZM177.259 43.704V69.528H179.259V43.704H177.259ZM177.259 69.528C177.259 70.917 176.763 72.1054 175.728 73.1409L177.142 74.5551C178.538 73.1586 179.259 71.467 179.259 69.528H177.259ZM175.728 73.1409C174.692 74.1764 173.504 74.672 172.115 74.672V76.672C174.054 76.672 175.745 75.9516 177.142 74.5551L175.728 73.1409ZM172.115 74.672C170.726 74.672 169.537 74.1764 168.502 73.1409L167.088 74.5551C168.484 75.9516 170.176 76.672 172.115 76.672V74.672ZM168.502 73.1409C167.466 72.1054 166.971 70.917 166.971 69.528H164.971C164.971 71.467 165.691 73.1586 167.088 74.5551L168.502 73.1409ZM166.971 69.528V45.72H164.971V69.528H166.971ZM166.971 45.72C166.971 43.1179 166.364 40.9802 164.973 39.493C163.571 37.9932 161.535 37.328 159.059 37.328V39.328C161.191 39.328 162.611 39.8948 163.512 40.859C164.426 41.8358 164.971 43.3941 164.971 45.72H166.971ZM159.059 37.328C156.996 37.328 155.021 37.9357 153.15 39.1138L154.216 40.8062C155.801 39.8083 157.41 39.328 159.059 39.328V37.328ZM153.173 39.0997C151.332 40.1904 149.817 41.5639 148.643 43.222L150.275 44.378C151.276 42.9641 152.577 41.7776 154.193 40.8203L153.173 39.0997ZM148.459 43.8V69.528H150.459V43.8H148.459ZM148.459 69.528C148.459 70.917 147.963 72.1054 146.928 73.1409L148.342 74.5551C149.738 73.1586 150.459 71.467 150.459 69.528H148.459ZM146.909 73.1603C145.944 74.1784 144.798 74.672 143.411 74.672V76.672C145.351 76.672 147.021 75.9496 148.361 74.5357L146.909 73.1603ZM143.411 74.672C141.947 74.672 140.729 74.1683 139.702 73.1409L138.288 74.5551C139.692 75.9597 141.419 76.672 143.411 76.672V74.672ZM139.721 73.1603C138.743 72.1286 138.267 70.9342 138.267 69.528H136.267C136.267 71.4498 136.942 73.1354 138.269 74.5357L139.721 73.1603ZM138.267 69.528V34.104H136.267V69.528H138.267ZM138.267 34.104C138.267 32.6229 138.751 31.3996 139.721 30.3757L138.269 29.0003C136.935 30.4084 136.267 32.1291 136.267 34.104H138.267ZM139.702 30.3951C140.737 29.3596 141.926 28.864 143.315 28.864V26.864C141.376 26.864 139.684 27.5844 138.288 28.9809L139.702 30.3951ZM143.315 28.864C144.779 28.864 145.996 29.3677 147.024 30.3951L148.438 28.9809C147.033 27.5763 145.307 26.864 143.315 26.864V28.864ZM147.024 30.3951C148.051 31.4226 148.555 32.6398 148.555 34.104H150.555C150.555 32.1122 149.842 30.3854 148.438 28.9809L147.024 30.3951ZM148.555 34.104V34.584H150.555V34.104H148.555ZM150.347 35.1937C151.514 33.6774 153.403 32.1571 156.09 30.6572L155.115 28.9108C152.299 30.4829 150.156 32.1626 148.762 33.9743L150.347 35.1937ZM156.082 30.6619C158.751 29.2058 161.594 28.48 164.627 28.48V26.48C161.259 26.48 158.086 27.2902 155.124 28.9061L156.082 30.6619ZM164.627 28.48C167.817 28.48 170.347 29.1546 172.286 30.4279C174.215 31.6949 175.644 33.6101 176.544 36.2507L178.437 35.6053C177.417 32.6139 175.742 30.3051 173.384 28.7561C171.035 27.2134 168.092 26.48 164.627 26.48V28.48ZM178.33 36.4722C179.759 34.2681 181.863 32.3899 184.688 30.8546L183.733 29.0974C180.67 30.7621 178.294 32.8519 176.652 35.3838L178.33 36.4722ZM184.703 30.8466C187.506 29.2624 190.409 28.48 193.427 28.48V26.48C190.044 26.48 186.804 27.3616 183.719 29.1054L184.703 30.8466ZM193.427 28.48C197.667 28.48 200.731 29.6133 202.79 31.7294L204.223 30.3346C201.674 27.7147 198.019 26.48 193.427 26.48V28.48ZM202.8 31.7391C204.919 33.8581 206.059 37.0514 206.059 41.496H208.059C208.059 36.7246 206.831 32.9419 204.214 30.3249L202.8 31.7391ZM256.649 34.104L255.942 34.8111L255.947 34.8162L256.649 34.104ZM228.809 55.704V54.704H227.679L227.816 55.8255L228.809 55.704ZM232.937 63.48L232.283 64.2364L232.293 64.2458L232.305 64.2549L232.937 63.48ZM251.561 63.864L252.051 64.7356L252.063 64.7287L252.075 64.7215L251.561 63.864ZM257.225 64.728L257.932 64.0209L257.225 64.728ZM256.073 72.312L255.587 71.4378L255.577 71.4438L256.073 72.312ZM223.049 69.432L222.352 70.1489L222.357 70.1538L223.049 69.432ZM222.857 34.584L223.574 35.2812L223.578 35.2763L222.857 34.584ZM228.617 47.448L227.626 47.3158L227.475 48.448H228.617V47.448ZM251.465 47.448V48.448H252.534L252.463 47.3815L251.465 47.448ZM248.201 40.152L247.494 40.8591L247.494 40.8591L248.201 40.152ZM232.169 40.152L232.876 40.8591L232.169 40.152ZM240.041 28.48C246.451 28.48 251.726 30.5959 255.942 34.8111L257.356 33.3969C252.739 28.7801 246.943 26.48 240.041 26.48V28.48ZM255.947 34.8162C260.172 38.98 262.273 44.0034 262.273 49.944H264.273C264.273 43.4686 261.958 37.932 257.351 33.3917L255.947 34.8162ZM262.273 49.944C262.273 51.6433 261.753 52.7594 260.848 53.4831C259.901 54.241 258.366 54.704 256.073 54.704V56.704C258.58 56.704 260.645 56.207 262.097 55.0449C263.593 53.8486 264.273 52.0847 264.273 49.944H262.273ZM256.073 54.704L228.809 54.704V56.704L256.073 56.704V54.704ZM227.816 55.8255C228.23 59.2053 229.725 62.0244 232.283 64.2364L233.591 62.7236C231.412 60.8396 230.155 58.4747 229.801 55.5825L227.816 55.8255ZM232.305 64.2549C234.946 66.41 238.254 67.456 242.153 67.456V65.456C238.627 65.456 235.791 64.518 233.569 62.7051L232.305 64.2549ZM242.153 67.456C245.542 67.456 248.845 66.539 252.051 64.7356L251.07 62.9924C248.133 64.645 245.164 65.456 242.153 65.456V67.456ZM252.075 64.7215C252.531 64.4479 253.114 64.288 253.865 64.288V62.288C252.824 62.288 251.87 62.5121 251.046 63.0065L252.075 64.7215ZM253.865 64.288C254.862 64.288 255.733 64.65 256.518 65.4351L257.932 64.0209C256.797 62.886 255.427 62.288 253.865 62.288V64.288ZM256.518 65.4351C257.303 66.2202 257.665 67.0906 257.665 68.088H259.665C259.665 66.5254 259.067 65.1558 257.932 64.0209L256.518 65.4351ZM257.665 68.088C257.665 68.8548 257.488 69.4852 257.164 70.013C256.839 70.544 256.33 71.025 255.587 71.4378L256.558 73.1862C257.543 72.639 258.331 71.936 258.869 71.059C259.409 70.1788 259.665 69.1772 259.665 68.088H257.665ZM255.577 71.4438C251.263 73.9087 246.349 75.152 240.809 75.152V77.152C246.66 77.152 251.922 75.8353 256.569 73.1802L255.577 71.4438ZM240.809 75.152C233.869 75.152 228.206 72.9918 223.741 68.7102L222.357 70.1538C227.236 74.8322 233.413 77.152 240.809 77.152V75.152ZM223.746 68.7151C219.29 64.381 217.041 58.7626 217.041 51.768H215.041C215.041 59.2374 217.464 65.395 222.352 70.1489L223.746 68.7151ZM217.041 51.768C217.041 45.2326 219.219 39.7582 223.574 35.2812L222.14 33.8868C217.406 38.7538 215.041 44.7354 215.041 51.768H217.041ZM223.578 35.2763C227.923 30.7483 233.385 28.48 240.041 28.48V26.48C232.873 26.48 226.879 28.9477 222.135 33.8917L223.578 35.2763ZM228.617 48.448H251.465V46.448H228.617V48.448ZM252.463 47.3815C252.255 44.2674 251.068 41.6055 248.908 39.4449L247.494 40.8591C249.301 42.6665 250.291 44.8686 250.467 47.5145L252.463 47.3815ZM248.908 39.4449C246.695 37.2318 243.697 36.176 240.041 36.176V38.176C243.297 38.176 245.739 39.1042 247.494 40.8591L248.908 39.4449ZM240.041 36.176C236.558 36.176 233.664 37.2427 231.462 39.4449L232.876 40.8591C234.642 39.0933 236.995 38.176 240.041 38.176V36.176ZM231.462 39.4449C229.317 41.59 228.037 44.2265 227.626 47.3158L229.608 47.5802C229.964 44.9095 231.053 42.682 232.876 40.8591L231.462 39.4449ZM338.978 74.04L338.253 73.3512L338.252 73.3523L338.978 74.04ZM330.338 74.04L331.045 73.3329L330.338 74.04ZM328.418 69.624H327.418V69.6425L327.418 69.661L328.418 69.624ZM328.418 69.24H329.418V66.478L327.65 68.5998L328.418 69.24ZM299.426 69.624L300.176 68.9624L299.426 69.624ZM299.426 34.2L300.18 34.8562L300.185 34.8508L299.426 34.2ZM328.514 34.584L327.732 35.2074L329.514 37.4423V34.584H328.514ZM330.338 12.12L331.045 12.8271V12.8271L330.338 12.12ZM328.514 60.024L329.346 60.5787L329.514 60.3268V60.024H328.514ZM328.514 43.608H329.514V43.3052L329.346 43.0533L328.514 43.608ZM324.002 39.864L323.543 40.7526L323.555 40.7585L323.566 40.7642L324.002 39.864ZM309.506 42.072L310.26 42.7291L309.506 42.072ZM309.506 61.56L310.26 60.9029L309.506 61.56ZM324.002 63.864L324.437 64.7642L324.449 64.7585L324.46 64.7526L324.002 63.864ZM339.802 16.44V69.528H341.802V16.44H339.802ZM339.802 69.528C339.802 70.9935 339.296 72.2526 338.253 73.3512L339.703 74.7288C341.091 73.2674 341.802 71.5185 341.802 69.528H339.802ZM338.252 73.3523C337.295 74.3619 336.121 74.864 334.658 74.864V76.864C336.651 76.864 338.356 76.1501 339.704 74.7277L338.252 73.3523ZM334.658 74.864C333.269 74.864 332.08 74.3684 331.045 73.3329L329.631 74.7471C331.027 76.1436 332.719 76.864 334.658 76.864V74.864ZM331.045 73.3329C330.008 72.2965 329.472 71.0643 329.417 69.587L327.418 69.661C327.492 71.6397 328.235 73.3515 329.631 74.7471L331.045 73.3329ZM329.418 69.624V69.24H327.418V69.624H329.418ZM327.65 68.5998C323.985 72.9968 319.524 75.152 314.21 75.152V77.152C320.16 77.152 325.17 74.6992 329.186 69.8802L327.65 68.5998ZM314.21 75.152C308.469 75.152 303.818 73.0904 300.176 68.9624L298.676 70.2856C302.714 74.8616 307.919 77.152 314.21 77.152V75.152ZM300.176 68.9624C296.539 64.841 294.666 59.1809 294.666 51.864H292.666C292.666 59.5231 294.632 65.703 298.676 70.2856L300.176 68.9624ZM294.666 51.864C294.666 44.681 296.536 39.047 300.18 34.8562L298.671 33.5438C294.635 38.185 292.666 44.327 292.666 51.864H294.666ZM300.185 34.8508C303.831 30.5974 308.479 28.48 314.21 28.48V26.48C307.908 26.48 302.701 28.8426 298.667 33.5492L300.185 34.8508ZM314.21 28.48C319.648 28.48 324.134 30.6952 327.732 35.2074L329.296 33.9606C325.341 29.0008 320.292 26.48 314.21 26.48V28.48ZM329.514 34.584V16.44H327.514V34.584H329.514ZM329.514 16.44C329.514 15.051 330.009 13.8626 331.045 12.8271L329.631 11.4129C328.234 12.8094 327.514 14.501 327.514 16.44H329.514ZM331.045 12.8271C332.08 11.7916 333.269 11.296 334.658 11.296V9.296C332.719 9.296 331.027 10.0164 329.631 11.4129L331.045 12.8271ZM334.658 11.296C336.047 11.296 337.235 11.7916 338.271 12.8271L339.685 11.4129C338.288 10.0164 336.597 9.296 334.658 9.296V11.296ZM338.271 12.8271C339.306 13.8626 339.802 15.051 339.802 16.44H341.802C341.802 14.501 341.081 12.8094 339.685 11.4129L338.271 12.8271ZM329.514 60.024V43.608H327.514V60.024H329.514ZM329.346 43.0533C328.205 41.3424 326.551 39.9864 324.437 38.9638L323.566 40.7642C325.421 41.6616 326.774 42.8016 327.682 44.1627L329.346 43.0533ZM324.46 38.9754C322.348 37.8849 320.175 37.328 317.954 37.328V39.328C319.828 39.328 321.688 39.7951 323.543 40.7526L324.46 38.9754ZM317.954 37.328C314.223 37.328 311.127 38.6904 308.752 41.4149L310.26 42.7291C312.236 40.4616 314.772 39.328 317.954 39.328V37.328ZM308.752 41.4149C306.385 44.1305 305.242 47.6453 305.242 51.864H307.242C307.242 48.0187 308.275 45.0055 310.26 42.7291L308.752 41.4149ZM305.242 51.864C305.242 56.0233 306.387 59.5044 308.752 62.2171L310.26 60.9029C308.272 58.6236 307.242 55.6407 307.242 51.864H305.242ZM308.752 62.2171C311.127 64.9416 314.223 66.304 317.954 66.304V64.304C314.772 64.304 312.236 63.1704 310.26 60.9029L308.752 62.2171ZM317.954 66.304C320.164 66.304 322.328 65.7848 324.437 64.7642L323.566 62.9638C321.707 63.8632 319.84 64.304 317.954 64.304V66.304ZM324.46 64.7526C326.564 63.667 328.21 62.2826 329.346 60.5787L327.682 59.4693C326.77 60.8374 325.408 62.013 323.543 62.9754L324.46 64.7526ZM390.524 34.104L389.817 34.8111L389.822 34.8162L390.524 34.104ZM362.684 55.704V54.704H361.554L361.691 55.8255L362.684 55.704ZM366.812 63.48L366.158 64.2364L366.168 64.2458L366.18 64.2549L366.812 63.48ZM385.436 63.864L385.926 64.7356L385.938 64.7287L385.95 64.7215L385.436 63.864ZM391.1 64.728L391.807 64.0209L391.1 64.728ZM389.948 72.312L389.462 71.4378L389.452 71.4438L389.948 72.312ZM356.924 69.432L356.227 70.1489L356.232 70.1538L356.924 69.432ZM356.732 34.584L357.449 35.2812L357.453 35.2763L356.732 34.584ZM362.492 47.448L361.501 47.3158L361.35 48.448H362.492V47.448ZM385.34 47.448V48.448L386.409 48.448L386.338 47.3815L385.34 47.448ZM382.076 40.152L381.369 40.8591V40.8591L382.076 40.152ZM366.044 40.152L366.751 40.8591L366.044 40.152ZM373.916 28.48C380.326 28.48 385.601 30.5959 389.817 34.8111L391.231 33.3969C386.614 28.7801 380.818 26.48 373.916 26.48V28.48ZM389.822 34.8162C394.047 38.98 396.148 44.0034 396.148 49.944H398.148C398.148 43.4686 395.833 37.932 391.226 33.3917L389.822 34.8162ZM396.148 49.944C396.148 51.6433 395.628 52.7594 394.723 53.4831C393.776 54.241 392.241 54.704 389.948 54.704V56.704C392.455 56.704 394.52 56.207 395.972 55.0449C397.468 53.8486 398.148 52.0847 398.148 49.944H396.148ZM389.948 54.704L362.684 54.704V56.704L389.948 56.704V54.704ZM361.691 55.8255C362.105 59.2053 363.6 62.0244 366.158 64.2364L367.466 62.7236C365.287 60.8396 364.03 58.4747 363.676 55.5825L361.691 55.8255ZM366.18 64.2549C368.821 66.41 372.129 67.456 376.028 67.456V65.456C372.502 65.456 369.666 64.518 367.444 62.7051L366.18 64.2549ZM376.028 67.456C379.417 67.456 382.72 66.539 385.926 64.7356L384.945 62.9924C382.008 64.645 379.039 65.456 376.028 65.456V67.456ZM385.95 64.7215C386.406 64.4479 386.988 64.288 387.74 64.288V62.288C386.699 62.288 385.745 62.5121 384.921 63.0065L385.95 64.7215ZM387.74 64.288C388.737 64.288 389.608 64.65 390.393 65.4351L391.807 64.0209C390.672 62.886 389.302 62.288 387.74 62.288V64.288ZM390.393 65.4351C391.178 66.2202 391.54 67.0906 391.54 68.088H393.54C393.54 66.5254 392.942 65.1558 391.807 64.0209L390.393 65.4351ZM391.54 68.088C391.54 68.8548 391.363 69.4852 391.039 70.013C390.714 70.544 390.205 71.025 389.462 71.4378L390.433 73.1862C391.418 72.639 392.206 71.936 392.744 71.059C393.284 70.1788 393.54 69.1772 393.54 68.088H391.54ZM389.452 71.4438C385.138 73.9087 380.224 75.152 374.684 75.152V77.152C380.535 77.152 385.797 75.8353 390.444 73.1802L389.452 71.4438ZM374.684 75.152C367.744 75.152 362.081 72.9918 357.616 68.7102L356.232 70.1538C361.111 74.8322 367.288 77.152 374.684 77.152V75.152ZM357.621 68.7151C353.165 64.381 350.916 58.7626 350.916 51.768H348.916C348.916 59.2374 351.339 65.395 356.227 70.1489L357.621 68.7151ZM350.916 51.768C350.916 45.2326 353.094 39.7582 357.449 35.2812L356.015 33.8868C351.281 38.7538 348.916 44.7354 348.916 51.768H350.916ZM357.453 35.2763C361.798 30.7483 367.26 28.48 373.916 28.48V26.48C366.748 26.48 360.754 28.9477 356.01 33.8917L357.453 35.2763ZM362.492 48.448H385.34V46.448H362.492V48.448ZM386.338 47.3815C386.13 44.2674 384.943 41.6055 382.783 39.4449L381.369 40.8591C383.176 42.6665 384.166 44.8686 384.342 47.5145L386.338 47.3815ZM382.783 39.4449C380.57 37.2318 377.572 36.176 373.916 36.176V38.176C377.172 38.176 379.614 39.1042 381.369 40.8591L382.783 39.4449ZM373.916 36.176C370.433 36.176 367.539 37.2427 365.337 39.4449L366.751 40.8591C368.517 39.0933 370.87 38.176 373.916 38.176V36.176ZM365.337 39.4449C363.192 41.59 361.912 44.2265 361.501 47.3158L363.483 47.5802C363.839 44.9095 364.928 42.682 366.751 40.8591L365.337 39.4449ZM446.754 36.312L447.681 36.688L447.684 36.6795L447.688 36.671L446.754 36.312ZM433.122 69.912L434.048 70.2893L434.049 70.2879L433.122 69.912ZM429.666 74.136L430.221 74.9681L430.229 74.9629L429.666 74.136ZM419.298 74.136L418.72 74.952L418.739 74.9656L418.759 74.9783L419.298 74.136ZM415.938 69.912L415.011 70.287L415.012 70.2893L415.938 69.912ZM402.306 36.216L401.373 36.575L401.376 36.583L401.379 36.591L402.306 36.216ZM403.554 29.784L404.261 30.4911L404.271 30.4816L404.28 30.4717L403.554 29.784ZM413.346 31.704L414.282 31.3505L414.28 31.345L413.346 31.704ZM424.482 61.176L423.547 61.5295L424.486 64.0159L425.419 61.5268L424.482 61.176ZM435.522 31.704L434.589 31.345L434.586 31.3532L435.522 31.704ZM445.506 29.784L444.78 30.4717L444.79 30.4816L444.799 30.4911L445.506 29.784ZM446.234 34.008C446.234 34.5614 446.108 35.2064 445.821 35.953L447.688 36.671C448.04 35.7536 448.234 34.8626 448.234 34.008H446.234ZM445.828 35.936L432.196 69.536L434.049 70.2879L447.681 36.688L445.828 35.936ZM432.196 69.5347C431.569 71.0733 430.547 72.3275 429.104 73.3091L430.229 74.9629C431.985 73.7685 433.267 72.2067 434.048 70.2893L432.196 69.5347ZM429.112 73.3039C427.741 74.2178 426.238 74.672 424.578 74.672V76.672C426.631 76.672 428.52 76.1022 430.221 74.968L429.112 73.3039ZM424.578 74.672C422.847 74.672 421.275 74.2136 419.837 73.2937L418.759 74.9783C420.522 76.1064 422.469 76.672 424.578 76.672V74.672ZM419.876 73.32C418.494 72.3411 417.496 71.0847 416.864 69.5347L415.012 70.2893C415.789 72.1953 417.03 73.7549 418.72 74.952L419.876 73.32ZM416.865 69.537L403.233 35.841L401.379 36.591L415.011 70.287L416.865 69.537ZM403.24 35.857C402.948 35.0978 402.826 34.4873 402.826 34.008H400.826C400.826 34.8087 401.025 35.6702 401.373 36.575L403.24 35.857ZM402.826 34.008C402.826 32.6029 403.301 31.4511 404.261 30.4911L402.847 29.0769C401.503 30.4209 400.826 32.0851 400.826 34.008H402.826ZM404.28 30.4717C405.245 29.4536 406.391 28.96 407.778 28.96V26.96C405.838 26.96 404.168 27.6824 402.828 29.0963L404.28 30.4717ZM407.778 28.96C409.002 28.96 409.948 29.236 410.676 29.7258C411.403 30.2142 411.992 30.9684 412.413 32.063L414.28 31.345C413.741 29.9436 412.922 28.8258 411.792 28.0662C410.665 27.308 409.307 26.96 407.778 26.96V28.96ZM412.411 32.0575L423.547 61.5295L425.418 60.8225L414.282 31.3505L412.411 32.0575ZM425.419 61.5268L436.459 32.0548L434.586 31.3532L423.546 60.8252L425.419 61.5268ZM436.456 32.063C436.875 30.973 437.469 30.2197 438.21 29.7302C438.954 29.2381 439.926 28.96 441.186 28.96V26.96C439.63 26.96 438.25 27.3059 437.107 28.0618C435.959 28.8203 435.13 29.939 434.589 31.345L436.456 32.063ZM441.186 28.96C442.649 28.96 443.824 29.4621 444.78 30.4717L446.232 29.0963C444.885 27.6739 443.179 26.96 441.186 26.96V28.96ZM444.799 30.4911C445.759 31.4511 446.234 32.6029 446.234 34.008H448.234C448.234 32.0851 447.557 30.4209 446.213 29.0769L444.799 30.4911Z" fill="#FAFAFA"/>
</g>
<defs>
<filter id="filter0_d_602_318" x="0.0717773" y="0.719727" width="460.163" height="92.7207" filterUnits="userSpaceOnUse" color-interpolation-filters="sRGB">
<feFlood flood-opacity="0" result="BackgroundImageFix"/>
<feColorMatrix in="SourceAlpha" type="matrix" values="0 0 0 0 0 0 0 0 0 0 0 0 0 0 0 0 0 0 127 0" result="hardAlpha"/>
<feOffset dy="4"/>
<feGaussianBlur stdDeviation="6.5"/>
<feComposite in2="hardAlpha" operator="out"/>
<feColorMatrix type="matrix" values="0 0 0 0 1 0 0 0 0 1 0 0 0 0 1 0 0 0 0.25 0"/>
<feBlend mode="normal" in2="BackgroundImageFix" result="effect1_dropShadow_602_318"/>
<feBlend mode="normal" in="SourceGraphic" in2="effect1_dropShadow_602_318" result="shape"/>
</filter>
</defs>
</svg>
