<svg width="626" height="117" viewBox="0 0 626 117" fill="none" xmlns="http://www.w3.org/2000/svg">
<g filter="url(#filter0_i_480_272)">
<path fill-rule="evenodd" clip-rule="evenodd" d="M2.69806 82.4705L2.6781 82.4521C1.01867 80.9212 0 79.025 0 76.811C0 74.8155 0.673313 73.0187 2.03306 71.5525L2.06703 71.5158L2.10257 71.4807C3.57363 70.0267 5.41467 69.2744 7.4952 69.2744C9.29563 69.2744 10.9994 69.7795 12.3075 71.036C18.7975 76.6306 26.1465 79.3902 34.4409 79.3902C40.8052 79.3902 45.2451 78.0364 48.1257 75.6874C51.0832 73.2757 52.4664 70.4072 52.4664 66.9512C52.4664 64.3084 51.656 62.3596 50.1644 60.8852L50.1254 60.8467L50.0884 60.8064C48.6161 59.2056 46.7055 57.8929 44.2986 56.8953C41.7594 55.8427 37.7738 54.5514 32.2761 53.0227C25.4356 51.2251 20.1947 49.6192 16.6111 48.2023L16.6008 48.1982L16.5905 48.194C11.6622 46.1909 7.80184 43.3904 5.18253 39.7126C2.55534 36.0236 1.29547 31.6181 1.29547 26.6159C1.29547 18.9708 4.49458 12.6431 10.7272 7.78928C16.9208 2.9659 24.7579 0.640243 34.0523 0.640243C44.696 0.640243 54.0754 3.71894 62.0893 9.90329C64.1835 11.2829 65.2545 13.3631 65.2545 15.8598C65.2545 17.8553 64.4762 19.6088 63.0575 21.0271C61.6829 22.4908 59.9149 23.2683 57.8888 23.2683C56.1512 23.2683 54.571 22.703 53.2714 21.5635C47.6721 16.9898 41.0447 14.689 33.275 14.689C28.107 14.689 24.1444 15.8831 21.1901 18.0732L21.1825 18.0788C18.3778 20.1403 17.0631 22.7149 17.0631 25.9756C17.0631 28.0347 17.7401 29.6576 19.0856 30.997C20.5603 32.3758 22.3968 33.4972 24.6385 34.3377C27.0295 35.2341 30.9088 36.4049 36.3366 37.8527C42.1948 39.4084 47.4699 41.144 52.1536 43.0648C57.3518 45.1137 61.4126 48.0589 64.1622 51.9793C66.9181 55.9086 68.2341 60.643 68.2341 66.0549C68.2341 73.8684 65.2826 80.4619 59.4394 85.6786C53.5 90.9812 44.9022 93.439 34.0523 93.439C21.5659 93.439 11.0609 89.8283 2.71846 82.4885L2.69806 82.4705ZM51.282 45.1829C46.7046 43.3049 41.5228 41.5976 35.7364 40.061C30.2954 38.6098 26.3226 37.4146 23.8181 36.4756C21.3135 35.5366 19.1976 34.2561 17.4703 32.6341C15.6566 30.8415 14.7498 28.622 14.7498 25.9756C14.7498 21.9634 16.4339 18.7195 19.8021 16.2439C23.2567 13.6829 27.7477 12.4024 33.275 12.4024C41.566 12.4024 48.7342 14.878 54.7797 19.8293C55.6434 20.5976 56.6797 20.9817 57.8888 20.9817C59.2707 20.9817 60.4366 20.4695 61.3866 19.4451C62.423 18.4207 62.9411 17.2256 62.9411 15.8598C62.9411 14.0671 62.207 12.7012 60.7389 11.7622C53.1388 5.87195 44.2433 2.92683 34.0523 2.92683C25.1567 2.92683 17.8589 5.14634 12.1589 9.58537C6.45882 14.0244 3.6088 19.7012 3.6088 26.6159C3.6088 35.8354 8.22929 42.3232 17.4703 46.0793C20.9249 47.4451 26.0635 49.0244 32.8863 50.8171C38.4137 52.3537 42.516 53.6768 45.1933 54.7866C47.8706 55.8963 50.0729 57.3902 51.8001 59.2683C53.7865 61.2317 54.7797 63.7927 54.7797 66.9512C54.7797 71.1341 53.0524 74.6341 49.5978 77.4512C46.1433 80.2683 41.091 81.6768 34.4409 81.6768C25.5454 81.6768 17.643 78.689 10.7339 72.7134C9.95658 71.9451 8.87703 71.561 7.4952 71.561C6.027 71.561 4.77472 72.0732 3.73834 73.0976C2.78834 74.1219 2.31333 75.3597 2.31333 76.811C2.31333 78.2622 2.96107 79.5854 4.25653 80.7805C12.1157 87.6951 22.0476 91.1524 34.0523 91.1524C44.5887 91.1524 52.5342 88.7622 57.8888 83.9817C63.2434 79.2012 65.9207 73.2256 65.9207 66.0549C65.9207 55.9817 61.0411 49.0244 51.282 45.1829ZM118.702 39.9004L118.686 39.8852C116.941 38.1603 114.136 37.0976 109.829 37.0976C106.721 37.0976 103.603 37.9178 100.45 39.6316L100.431 39.6423L100.411 39.6526C97.4864 41.1702 95.2456 43.0116 93.6171 45.1509V85.3902C93.6171 87.3018 92.8804 88.9863 91.5145 90.3364C90.1486 91.6865 88.4445 92.4146 86.5105 92.4146C84.5348 92.4146 82.7745 91.7177 81.377 90.3364C80.0111 88.9863 79.2744 87.3018 79.2744 85.3902V31.9939C79.2744 30.0823 80.0111 28.3979 81.377 27.0478C82.7429 25.6977 84.447 24.9695 86.381 24.9695C88.3568 24.9695 90.117 25.6664 91.5145 27.0478C92.7229 28.2422 93.4389 29.6984 93.5879 31.342C95.487 29.7879 97.6195 28.4296 99.9764 27.264C104.34 25.0631 108.885 23.9451 113.586 23.9451C120.6 23.9451 126.284 25.7035 130.195 29.6192C134.1 33.5295 135.849 39.2037 135.849 46.2073V85.3902C135.849 87.3018 135.113 88.9863 133.747 90.3364C132.349 91.7177 130.589 92.4146 128.613 92.4146C126.679 92.4146 124.975 91.6865 123.609 90.3364C122.243 88.9863 121.507 87.3018 121.507 85.3902V49.1524C121.507 44.3896 120.394 41.511 118.718 39.9154L118.702 39.9004ZM101.02 29.3049C98.1761 30.7103 95.7085 32.4 93.6171 34.374C92.7867 35.1577 92.0156 35.9863 91.3038 36.8598V31.9939C91.3038 30.7134 90.8288 29.6037 89.8787 28.6646C88.9287 27.7256 87.7628 27.2561 86.381 27.2561C85.0855 27.2561 83.9628 27.7256 83.0128 28.6646C82.0628 29.6037 81.5878 30.7134 81.5878 31.9939V85.3902C81.5878 86.6707 82.0628 87.7805 83.0128 88.7195C83.9628 89.6585 85.1287 90.128 86.5105 90.128C87.806 90.128 88.9287 89.6585 89.8787 88.7195C90.8288 87.7805 91.3038 86.6707 91.3038 85.3902V44.4146C93.2038 41.6829 95.8811 39.4207 99.3356 37.6281C102.79 35.75 106.288 34.811 109.829 34.811C114.493 34.811 117.99 35.9634 120.322 38.2683C122.654 40.4878 123.82 44.1159 123.82 49.1524V85.3902C123.82 86.6707 124.295 87.7805 125.245 88.7195C126.195 89.6585 127.318 90.128 128.613 90.128C129.995 90.128 131.161 89.6585 132.111 88.7195C133.061 87.7805 133.536 86.6707 133.536 85.3902V46.2073C133.536 32.8902 126.886 26.2317 113.586 26.2317C109.268 26.2317 105.079 27.2561 101.02 29.3049ZM156.152 83.3447L156.146 83.3384C150.023 76.644 146.999 68.3545 146.999 58.6281C146.999 48.9019 150.023 40.6481 156.157 34.0342L156.158 34.0331C162.416 27.2938 170.522 23.9451 180.274 23.9451C190.02 23.9451 198.087 27.2904 204.26 34.0333C210.478 40.6439 213.549 48.8979 213.549 58.6281C213.549 68.361 210.477 76.6526 204.266 83.3446C198.092 90.0916 190.023 93.439 180.274 93.439C170.522 93.439 162.416 90.0903 156.158 83.351L156.152 83.3447ZM202.556 81.8049C208.342 75.5732 211.236 67.8476 211.236 58.6281C211.236 49.4085 208.342 41.7256 202.556 35.5793C196.856 29.3476 189.429 26.2317 180.274 26.2317C171.119 26.2317 163.649 29.3476 157.862 35.5793C152.162 41.7256 149.312 49.4085 149.312 58.6281C149.312 67.8476 152.162 75.5732 157.862 81.8049C163.649 88.0366 171.119 91.1524 180.274 91.1524C189.429 91.1524 196.856 88.0366 202.556 81.8049ZM193.5 43.16L193.492 43.15C190.245 39.1202 185.921 37.0976 180.274 37.0976C174.626 37.0976 170.247 39.1219 166.91 43.17C163.487 47.3228 161.73 52.4289 161.73 58.6281C161.73 64.9203 163.491 70.0667 166.91 74.2142C170.247 78.2622 174.626 80.2866 180.274 80.2866C185.921 80.2866 190.245 78.2639 193.492 74.2342L193.5 74.2241L193.508 74.2142C196.927 70.0667 198.688 64.9203 198.688 58.6281C198.688 52.4289 196.931 47.3228 193.508 43.17L193.5 43.16ZM249.037 90.823L248.989 90.8556C247.45 91.9089 245.688 92.4146 243.786 92.4146C241.884 92.4146 240.11 91.9097 238.519 90.899L238.437 90.8469L238.36 90.788C236.842 89.6341 235.823 88.1064 235.343 86.2772L218.484 34.1044L218.458 33.9789C218.37 33.5417 218.3 33.1731 218.251 32.882C218.213 32.6595 218.154 32.3007 218.154 31.9939C218.154 30.0574 218.851 28.3283 220.295 27.0101C221.655 25.6841 223.345 24.9695 225.261 24.9695C226.851 24.9695 228.383 25.3233 229.66 26.2347C230.942 27.1503 231.734 28.4621 232.147 29.9507L244.381 69.495L257.387 30.2741C257.895 28.6667 258.789 27.2805 260.166 26.3176C261.537 25.3591 263.173 24.9695 264.902 24.9695C266.631 24.9695 268.268 25.3591 269.639 26.3176C271.016 27.2803 271.909 28.6661 272.417 30.273L285.424 69.495L297.657 29.9507C298.07 28.4621 298.862 27.1503 300.145 26.2347C301.421 25.3233 302.953 24.9695 304.544 24.9695C306.477 24.9695 308.182 25.6977 309.548 27.0478C310.913 28.3979 311.65 30.0823 311.65 31.9939C311.65 32.689 311.515 33.4497 311.322 34.2131L311.304 34.2851L294.461 86.2784C293.966 88.1604 292.863 89.6972 291.249 90.8363L291.236 90.8461L291.222 90.8556C289.682 91.9089 287.92 92.4146 286.018 92.4146C284.117 92.4146 282.354 91.9089 280.815 90.8556L280.767 90.823L280.722 90.788C279.206 89.6353 278.187 88.1097 277.707 86.2831L264.902 47.3323L252.098 86.2832C251.618 88.1097 250.599 89.6354 249.083 90.788L249.037 90.823ZM249.875 85.6463L264.902 39.9329L279.93 85.6463C280.275 87.0122 281.009 88.122 282.132 88.9756C283.255 89.7439 284.55 90.128 286.018 90.128C287.487 90.128 288.782 89.7439 289.905 88.9756C291.114 88.122 291.891 87.0122 292.237 85.6463L309.078 33.6585C309.25 32.9756 309.337 32.4207 309.337 31.9939C309.337 30.7134 308.862 29.6037 307.912 28.6646C306.962 27.7256 305.839 27.2561 304.544 27.2561C302.039 27.2561 300.484 28.3659 299.88 30.5854L285.5 77.0671L270.214 30.9695C269.436 28.4939 267.666 27.2561 264.902 27.2561C262.139 27.2561 260.368 28.4939 259.591 30.9695L244.304 77.0671L229.925 30.5854C229.32 28.3659 227.766 27.2561 225.261 27.2561C223.966 27.2561 222.843 27.7256 221.893 28.6646C220.943 29.5183 220.468 30.628 220.468 31.9939C220.468 32.1646 220.554 32.6768 220.727 33.5305L237.568 85.6463C237.913 87.0122 238.647 88.122 239.77 88.9756C240.979 89.7439 242.318 90.128 243.786 90.128C245.254 90.128 246.55 89.7439 247.673 88.9756C248.795 88.122 249.529 87.0122 249.875 85.6463ZM353.684 83.9817V8.94512C353.684 6.88865 354.446 5.06889 355.917 3.61485L357.552 5.23171C356.516 6.2561 355.998 7.4939 355.998 8.94512V83.9817C355.998 87.7378 357.898 89.6159 361.698 89.6159H402.635C403.93 89.6159 405.053 89.1463 406.003 88.2073C407.039 87.2683 407.557 86.1585 407.557 84.8781C407.557 83.5976 407.039 82.4878 406.003 81.5488C405.053 80.6098 403.93 80.1402 402.635 80.1402H366.75V8.94512C366.75 7.4939 366.232 6.2561 365.196 5.23171C364.159 4.20732 362.907 3.69513 361.439 3.69513C359.884 3.69513 358.589 4.20732 357.552 5.23171L355.917 3.61485C357.415 2.13361 359.312 1.40854 361.439 1.40854C363.519 1.40854 365.36 2.1608 366.831 3.61485C368.302 5.06889 369.064 6.88865 369.064 8.94512V77.8537H402.635C404.552 77.8537 406.243 78.5691 407.602 79.8965C409.049 81.2224 409.871 82.9144 409.871 84.8781C409.871 86.8417 409.049 88.5338 407.602 89.8597C406.243 91.1871 404.552 91.9024 402.635 91.9024H361.698C359.441 91.9024 357.324 91.3433 355.787 89.8242C354.25 88.3051 353.684 86.2122 353.684 83.9817ZM420.299 15.0716L420.271 15.0437C418.547 13.3393 417.65 11.2231 417.65 8.81707C417.65 6.41107 418.547 4.29487 420.271 2.59045C421.971 0.910019 424.06 0 426.441 0C428.875 0 431.016 0.886044 432.74 2.59046C434.465 4.29487 435.361 6.41107 435.361 8.81707C435.361 11.2231 434.465 13.3393 432.74 15.0437L432.712 15.0716L432.683 15.0985C430.948 16.6989 428.825 17.5061 426.441 17.5061C424.111 17.5061 422.04 16.6774 420.328 15.0985L420.299 15.0716ZM419.334 85.3902V31.9939C419.334 30.0823 420.071 28.3979 421.437 27.0478C422.834 25.6664 424.595 24.9695 426.57 24.9695C428.504 24.9695 430.208 25.6977 431.574 27.0478C432.94 28.3979 433.677 30.0823 433.677 31.9939V85.3902C433.677 87.3018 432.94 88.9863 431.574 90.3364C430.177 91.7177 428.417 92.4146 426.441 92.4146C424.507 92.4146 422.803 91.6865 421.437 90.3364C420.071 88.9863 419.334 87.3018 419.334 85.3902ZM488.867 100.312L488.877 100.303C491.956 97.6849 493.643 93.7836 493.643 88.2073V85.4608C491.905 87.0008 489.973 88.3329 487.85 89.4553C483.806 91.5932 479.503 92.6707 474.97 92.6707C466.071 92.6707 458.691 89.5698 453.038 83.3303L453.026 83.3169L453.014 83.3034C447.461 76.9778 444.804 68.5828 444.804 58.3719C444.804 48.2407 447.464 39.8907 453.014 33.5686L453.015 33.5667C458.661 27.1493 466.048 23.9451 474.97 23.9451C482.253 23.9451 488.513 26.4146 493.684 31.2285C493.855 29.6313 494.565 28.2146 495.746 27.0478C497.143 25.6664 498.904 24.9695 500.88 24.9695C502.813 24.9695 504.518 25.6977 505.884 27.0478C507.249 28.3979 507.986 30.0823 507.986 31.9939V87.8232C507.986 97.6623 505.027 105.285 498.663 110.123C492.562 114.762 484.909 117 475.877 117C466.239 117 458.139 114.547 451.772 109.465C450.112 108.192 449.209 106.428 449.209 104.341C449.209 102.569 449.926 101.02 451.182 99.7795C452.437 98.5385 454.004 97.8293 455.797 97.8293C457.285 97.8293 458.651 98.3145 459.779 99.2887C463.761 102.692 469.054 104.488 475.877 104.488C481.506 104.488 485.75 103.026 488.857 100.321L488.867 100.312ZM453.206 107.671C459.079 112.366 466.636 114.713 475.877 114.713C484.513 114.713 491.639 112.579 497.252 108.311C502.866 104.043 505.673 97.2134 505.673 87.8232V31.9939C505.673 30.7134 505.198 29.6037 504.248 28.6646C503.298 27.7256 502.175 27.2561 500.88 27.2561C499.498 27.2561 498.332 27.7256 497.382 28.6646C496.432 29.6037 495.957 30.7134 495.957 31.9939V37.2439C495.215 36.2425 494.443 35.3094 493.643 34.4445C488.578 28.9693 482.354 26.2317 474.97 26.2317C466.679 26.2317 459.943 29.1768 454.761 35.0671C449.665 40.872 447.118 48.6402 447.118 58.3719C447.118 68.189 449.665 76 454.761 81.8049C459.943 87.5244 466.679 90.3841 474.97 90.3841C479.116 90.3841 483.045 89.4024 486.759 87.439C489.375 86.0558 491.67 84.3336 493.643 82.2724C494.471 81.4079 495.242 80.4838 495.957 79.5V88.2073C495.957 94.2683 494.1 98.878 490.386 102.037C486.759 105.195 481.923 106.774 475.877 106.774C468.622 106.774 462.75 104.854 458.259 101.012C457.568 100.415 456.747 100.116 455.797 100.116C454.675 100.116 453.681 100.543 452.818 101.396C451.954 102.25 451.522 103.232 451.522 104.341C451.522 105.707 452.084 106.817 453.206 107.671ZM464.442 42.8037L464.435 42.8122C461.244 46.567 459.536 51.6752 459.536 58.3719C459.536 64.9733 461.239 70.0958 464.449 73.9488C467.601 77.7317 471.802 79.6463 477.302 79.6463C480.503 79.6463 483.66 78.8228 486.801 77.1172C489.826 75.4385 492.078 73.438 493.643 71.1438V45.4717C492.081 43.1797 489.872 41.2258 486.94 39.6316C483.805 37.9274 480.602 37.0976 477.302 37.0976C471.802 37.0976 467.601 39.0122 464.449 42.7951L464.442 42.8037ZM495.957 44.7988V71.8171C494.143 74.7195 491.466 77.1524 487.925 79.1159C484.47 80.9939 480.929 81.9329 477.302 81.9329C471.17 81.9329 466.291 79.7561 462.663 75.4024C459.036 71.0488 457.222 65.3719 457.222 58.3719C457.222 51.2866 459.036 45.6098 462.663 41.3415C466.291 36.9878 471.17 34.811 477.302 34.811C481.016 34.811 484.6 35.75 488.054 37.6281C491.509 39.5061 494.143 41.8963 495.957 44.7988ZM544.116 39.6365L544.107 39.6413C541.255 41.1597 538.953 43.0167 537.162 45.2002V85.3902C537.162 87.3018 536.426 88.9863 535.06 90.3364C533.694 91.6865 531.99 92.4146 530.056 92.4146C528.08 92.4146 526.32 91.7177 524.922 90.3364C523.556 88.9863 522.82 87.3018 522.82 85.3902V8.43293C522.82 6.52134 523.556 4.83688 524.922 3.4868C526.32 2.10547 528.08 1.40854 530.056 1.40854C531.99 1.40854 533.694 2.13672 535.06 3.4868C536.426 4.83688 537.162 6.52134 537.162 8.43293V31.299C539.089 29.7667 541.262 28.4204 543.669 27.2552C548.102 25.066 552.64 23.9451 557.261 23.9451C564.267 23.9451 569.947 25.6781 573.859 29.5447C577.771 33.4114 579.524 39.0256 579.524 45.9512V85.3902C579.524 87.3018 578.787 88.9863 577.422 90.3364C576.024 91.7177 574.264 92.4146 572.288 92.4146C570.354 92.4146 568.65 91.6865 567.284 90.3364C565.918 88.9863 565.181 87.3018 565.181 85.3902V48.8963C565.181 44.2327 564.075 41.3891 562.392 39.7873C560.657 38.1353 557.803 37.0976 553.374 37.0976C550.362 37.0976 547.287 37.9127 544.125 39.6316L544.116 39.6365ZM537.162 34.318C539.274 32.3836 541.784 30.7126 544.695 29.3049C548.84 27.2561 553.029 26.2317 557.261 26.2317C570.561 26.2317 577.211 32.8049 577.211 45.9512V85.3902C577.211 86.6707 576.736 87.7805 575.786 88.7195C574.836 89.6585 573.67 90.128 572.288 90.128C570.993 90.128 569.87 89.6585 568.92 88.7195C567.97 87.7805 567.495 86.6707 567.495 85.3902V48.8963C567.495 43.9451 566.329 40.3598 563.997 38.1402C561.665 35.9207 558.124 34.811 553.374 34.811C549.92 34.811 546.465 35.75 543.01 37.6281C539.642 39.4207 536.922 41.6829 534.849 44.4146V85.3902C534.849 86.6707 534.374 87.7805 533.424 88.7195C532.474 89.6585 531.351 90.128 530.056 90.128C528.674 90.128 527.508 89.6585 526.558 88.7195C525.608 87.7805 525.133 86.6707 525.133 85.3902V8.43293C525.133 7.15244 525.608 6.04268 526.558 5.10366C527.508 4.16464 528.674 3.69513 530.056 3.69513C531.351 3.69513 532.474 4.16464 533.424 5.10366C534.374 6.04268 534.849 7.15244 534.849 8.43293V36.7317C535.558 35.8861 536.329 35.0815 537.162 34.318ZM621.225 89.1037C618.98 90.4695 616.043 91.1524 612.416 91.1524C603.175 91.1524 598.555 86.3293 598.555 76.6829V36.2195H591.948C590.825 36.2195 589.832 35.7927 588.968 34.939C588.105 34.0854 587.673 33.1037 587.673 31.9939C587.673 30.7988 588.105 29.8171 588.968 29.0488C589.832 28.1951 590.825 27.7683 591.948 27.7683H598.555V15.0915C598.555 13.811 599.03 12.7012 599.98 11.7622C600.93 10.8232 602.096 10.3537 603.477 10.3537C604.773 10.3537 605.896 10.8232 606.846 11.7622C607.796 12.7012 608.271 13.811 608.271 15.0915V27.7683H617.209C618.418 27.7683 619.455 28.1951 620.318 29.0488C621.182 29.9024 621.614 30.8841 621.614 31.9939C621.614 33.1037 621.182 34.0854 620.318 34.939C619.455 35.7927 618.418 36.2195 617.209 36.2195H608.271V74.6341C608.271 77.0244 608.789 78.9451 609.825 80.3963C610.948 81.8476 612.546 82.5732 614.618 82.5732C615.396 82.5732 616.389 82.4024 617.598 82.061C618.807 81.6342 619.455 81.4207 619.541 81.4207C620.75 81.4207 621.743 81.8049 622.521 82.5732C623.298 83.3415 623.687 84.3232 623.687 85.5183C623.687 87.311 622.866 88.5061 621.225 89.1037ZM616.893 79.8819C617.468 79.6793 617.926 79.5214 618.259 79.4115C618.43 79.3551 618.587 79.3051 618.718 79.2671C618.782 79.2486 618.862 79.2262 618.947 79.2063C618.965 79.2016 619.23 79.1341 619.541 79.1341C621.296 79.1341 622.9 79.7143 624.157 80.9563C625.413 82.1983 626 83.7833 626 85.5183C626 86.7614 625.713 87.9841 624.986 89.0431C624.301 90.0408 623.34 90.7267 622.249 91.1635C619.559 92.7403 616.227 93.439 612.416 93.439C607.406 93.439 603.232 92.1254 600.34 89.1072C597.471 86.1125 596.241 81.8284 596.241 76.6829V38.5061H591.948C590.154 38.5061 588.588 37.7968 587.332 36.5559C586.077 35.3149 585.359 33.7664 585.359 31.9939C585.359 30.2008 586.032 28.6068 587.375 27.3904C588.623 26.1751 590.175 25.4817 591.948 25.4817H596.241V15.0915C596.241 13.1799 596.978 11.4954 598.344 10.1453C599.741 8.764 601.502 8.06707 603.477 8.06707C605.411 8.06707 607.116 8.79525 608.481 10.1453C609.847 11.4954 610.584 13.1799 610.584 15.0915V25.4817H617.209C619.039 25.4817 620.662 26.1543 621.954 27.4319C623.21 28.6729 623.927 30.2214 623.927 31.9939C623.927 33.7664 623.21 35.3149 621.954 36.5559C620.662 37.8335 619.039 38.5061 617.209 38.5061H610.584V74.6341C610.584 76.6864 611.024 78.0896 611.69 79.0414C612.315 79.8316 613.187 80.2866 614.618 80.2866C615.08 80.2866 615.818 80.1813 616.893 79.8819ZM195.301 41.7256C199.101 46.3354 201.001 51.9695 201.001 58.6281C201.001 65.372 199.101 71.0488 195.301 75.6585C191.588 80.2683 186.579 82.5732 180.274 82.5732C173.969 82.5732 168.917 80.2683 165.117 75.6585C161.317 71.0488 159.417 65.372 159.417 58.6281C159.417 51.9695 161.317 46.3354 165.117 41.7256C168.917 37.1159 173.969 34.811 180.274 34.811C186.579 34.811 191.588 37.1159 195.301 41.7256ZM419.963 8.81707C419.963 10.6098 420.611 12.1463 421.907 13.4268C423.202 14.622 424.714 15.2195 426.441 15.2195C428.254 15.2195 429.809 14.622 431.104 13.4268C432.4 12.1463 433.048 10.6098 433.048 8.81707C433.048 7.02439 432.4 5.48781 431.104 4.20731C429.809 2.92683 428.254 2.28659 426.441 2.28659C424.714 2.28659 423.202 2.92683 421.907 4.20731C420.611 5.48781 419.963 7.02439 419.963 8.81707ZM421.648 31.9939V85.3902C421.648 86.6707 422.123 87.7805 423.073 88.7195C424.023 89.6585 425.145 90.128 426.441 90.128C427.823 90.128 428.989 89.6585 429.939 88.7195C430.889 87.7805 431.364 86.6707 431.364 85.3902V31.9939C431.364 30.7134 430.889 29.6037 429.939 28.6646C428.989 27.7256 427.866 27.2561 426.57 27.2561C425.189 27.2561 424.023 27.7256 423.073 28.6646C422.123 29.6037 421.648 30.7134 421.648 31.9939Z" fill="#FAFAFA" fill-opacity="0.8"/>
</g>
<defs>
<filter id="filter0_i_480_272" x="0" y="-2" width="626" height="119" filterUnits="userSpaceOnUse" color-interpolation-filters="sRGB">
<feFlood flood-opacity="0" result="BackgroundImageFix"/>
<feBlend mode="normal" in="SourceGraphic" in2="BackgroundImageFix" result="shape"/>
<feColorMatrix in="SourceAlpha" type="matrix" values="0 0 0 0 0 0 0 0 0 0 0 0 0 0 0 0 0 0 127 0" result="hardAlpha"/>
<feOffset dy="-2"/>
<feGaussianBlur stdDeviation="1"/>
<feComposite in2="hardAlpha" operator="arithmetic" k2="-1" k3="1"/>
<feColorMatrix type="matrix" values="0 0 0 0 0.0823529 0 0 0 0 0.0588235 0 0 0 0 0.309804 0 0 0 0.5 0"/>
<feBlend mode="normal" in2="shape" result="effect1_innerShadow_480_272"/>
</filter>
</defs>
</svg>
