<svg width="407" height="143" viewBox="0 0 407 143" fill="none" xmlns="http://www.w3.org/2000/svg">
<g filter="url(#filter0_dii_480_271)">
<path d="M15 102.991C15 99.9299 16.0446 97.3604 18.1338 95.283C20.333 93.0963 22.917 92.0029 25.8858 92.0029C28.3049 92.0029 30.3941 92.6589 32.1534 93.971C40.6202 99.7658 49.8566 102.663 59.8628 102.663C65.6905 102.663 70.3087 101.515 73.7174 99.2192C77.2361 96.8137 78.9954 93.8616 78.9954 90.3628C78.9954 86.8641 77.2911 84.1306 73.8824 82.1626C70.4737 80.1945 64.7559 78.2811 56.729 76.4224C48.2622 74.4543 41.2799 72.4862 35.782 70.5181C29.8443 68.3314 25.0062 64.9419 21.2676 60.3498C17.529 55.7576 15.6597 49.9628 15.6597 42.9652C15.6597 33.4528 19.5632 25.5806 27.3702 19.3483C35.2872 13.1161 45.8431 10 59.0381 10C71.4633 10 82.8439 13.0068 93.18 19.0203C96.8086 20.9884 98.6229 24.0498 98.6229 28.2046C98.6229 31.1567 97.5233 33.7262 95.3241 35.9129C93.2349 37.9903 90.7609 39.029 87.902 39.029C85.7028 39.029 83.8335 38.4823 82.2941 37.389C73.9374 32.6875 65.6355 30.3367 57.3887 30.3367C51.561 30.3367 47.1077 31.3208 44.0288 33.2888C41.06 35.2569 39.5756 37.9903 39.5756 41.4891C39.5756 44.6599 41.115 47.0653 44.1938 48.7054C47.2726 50.2361 53.0454 52.0402 61.5121 54.1176C69.3191 55.7576 76.2465 57.7804 82.2941 60.1858C95.9289 65.2153 102.746 74.4543 102.746 87.9028C102.746 98.6178 98.8978 107.146 91.2007 113.488C83.5037 119.829 72.6728 123 58.7082 123C43.3141 123 30.3941 119.337 19.9481 112.012C16.6494 109.934 15 106.927 15 102.991Z" fill="#FAFAFA"/>
<path d="M112.908 81.3425C112.908 69.6434 116.756 59.8031 124.453 51.8215C132.26 43.8399 142.432 39.8491 154.967 39.8491C167.612 39.8491 177.783 43.8399 185.48 51.8215C193.287 59.8031 197.191 69.6434 197.191 81.3425C197.191 93.1509 193.287 103.046 185.48 111.028C177.783 119.009 167.612 123 154.967 123C142.322 123 132.151 119.009 124.453 111.028C116.756 103.046 112.908 93.1509 112.908 81.3425ZM175.419 81.3425C175.419 74.7823 173.55 69.3154 169.811 64.9419C166.072 60.5685 161.124 58.3817 154.967 58.3817C148.809 58.3817 143.861 60.5685 140.122 64.9419C136.494 69.2061 134.68 74.673 134.68 81.3425C134.68 88.0121 136.494 93.5336 140.122 97.9071C143.861 102.281 148.809 104.467 154.967 104.467C161.124 104.467 166.072 102.281 169.811 97.9071C173.55 93.5336 175.419 88.0121 175.419 81.3425Z" fill="#FAFAFA"/>
<path d="M212.731 111.684V20.9884C212.731 18.1456 213.72 15.6855 215.7 13.6081C217.789 11.5307 220.318 10.492 223.287 10.492C226.146 10.492 228.565 11.5307 230.544 13.6081C232.633 15.6855 233.678 18.1456 233.678 20.9884V111.684C233.678 114.526 232.633 116.986 230.544 119.064C228.565 121.141 226.146 122.18 223.287 122.18C220.318 122.18 217.789 121.141 215.7 119.064C213.72 116.986 212.731 114.526 212.731 111.684Z" fill="#FAFAFA"/>
<path d="M323.227 69.8621V111.356C323.227 114.308 322.182 116.877 320.093 119.064C318.114 121.141 315.64 122.18 312.671 122.18C310.032 122.18 307.668 121.305 305.578 119.556C303.599 117.806 302.445 115.565 302.115 112.832C296.507 119.611 288.15 123 277.044 123C269.787 123 263.355 120.649 257.747 115.948C252.139 111.246 249.335 104.85 249.335 96.7591C249.335 88.5588 252.084 82.3266 257.582 78.0624C263.08 73.6889 269.567 71.5022 277.044 71.5022C288.59 71.5022 297.002 74.7276 302.28 81.1785V70.1901C302.28 66.1447 300.685 62.9192 297.496 60.5138C294.308 58.1084 290.074 56.9057 284.796 56.9057C278.749 56.9057 272.866 58.6551 267.148 62.1538C265.939 62.9192 264.564 63.3019 263.025 63.3019C260.826 63.3019 258.956 62.5365 257.417 61.0058C255.877 59.3657 255.108 57.4523 255.108 55.2656C255.108 52.2042 256.372 49.9081 258.901 48.3774C267.588 42.6918 277.429 39.8491 288.425 39.8491C298.761 39.8491 307.118 42.1998 313.495 46.9013C319.983 51.7121 323.227 59.3658 323.227 69.8621ZM302.28 102.007V92.1669C298.871 87.5748 293.263 85.2787 285.456 85.2787C281.058 85.2787 277.429 86.372 274.57 88.5588C271.821 90.7455 270.447 93.643 270.447 97.2511C270.447 100.75 271.821 103.593 274.57 105.779C277.429 107.857 281.058 108.895 285.456 108.895C293.263 108.895 298.871 106.599 302.28 102.007Z" fill="#FAFAFA"/>
<path d="M389.526 42.9652C391.175 44.7146 392 46.956 392 49.6894C392 52.4228 391.12 54.7189 389.361 56.5777C387.602 58.4364 385.183 59.5844 382.104 60.0218C378.915 60.3498 375.616 61.3338 372.208 62.9739C368.909 64.6139 366.49 66.5273 364.95 68.7141V111.684C364.95 114.526 363.906 116.986 361.817 119.064C359.837 121.141 357.418 122.18 354.559 122.18C351.591 122.18 349.062 121.141 346.972 119.064C344.993 116.986 344.003 114.526 344.003 111.684V51.3295C344.003 48.3774 344.993 45.8626 346.972 43.7852C349.062 41.7078 351.536 40.6691 354.394 40.6691C357.363 40.6691 359.892 41.7078 361.982 43.7852C364.071 45.7533 365.115 48.2134 365.115 51.1655L364.95 52.6415C369.129 47.0653 373.472 43.4025 377.98 41.6531C380.29 40.7784 382.049 40.3411 383.258 40.3411C385.897 40.3411 387.987 41.2158 389.526 42.9652Z" fill="#FAFAFA"/>
</g>
<defs>
<filter id="filter0_dii_480_271" x="0" y="0" width="407" height="143" filterUnits="userSpaceOnUse" color-interpolation-filters="sRGB">
<feFlood flood-opacity="0" result="BackgroundImageFix"/>
<feColorMatrix in="SourceAlpha" type="matrix" values="0 0 0 0 0 0 0 0 0 0 0 0 0 0 0 0 0 0 127 0" result="hardAlpha"/>
<feOffset dy="5"/>
<feGaussianBlur stdDeviation="7.5"/>
<feComposite in2="hardAlpha" operator="out"/>
<feColorMatrix type="matrix" values="0 0 0 0 1 0 0 0 0 1 0 0 0 0 1 0 0 0 0.08 0"/>
<feBlend mode="normal" in2="BackgroundImageFix" result="effect1_dropShadow_480_271"/>
<feBlend mode="normal" in="SourceGraphic" in2="effect1_dropShadow_480_271" result="shape"/>
<feColorMatrix in="SourceAlpha" type="matrix" values="0 0 0 0 0 0 0 0 0 0 0 0 0 0 0 0 0 0 127 0" result="hardAlpha"/>
<feOffset dy="-4"/>
<feGaussianBlur stdDeviation="3.5"/>
<feComposite in2="hardAlpha" operator="arithmetic" k2="-1" k3="1"/>
<feColorMatrix type="matrix" values="0 0 0 0 0.0784314 0 0 0 0 0.054902 0 0 0 0 0.305882 0 0 0 0.5 0"/>
<feBlend mode="normal" in2="shape" result="effect2_innerShadow_480_271"/>
<feColorMatrix in="SourceAlpha" type="matrix" values="0 0 0 0 0 0 0 0 0 0 0 0 0 0 0 0 0 0 127 0" result="hardAlpha"/>
<feOffset dx="7" dy="1"/>
<feGaussianBlur stdDeviation="4"/>
<feComposite in2="hardAlpha" operator="arithmetic" k2="-1" k3="1"/>
<feColorMatrix type="matrix" values="0 0 0 0 0 0 0 0 0 0 0 0 0 0 0 0 0 0 0.25 0"/>
<feBlend mode="normal" in2="effect2_innerShadow_480_271" result="effect3_innerShadow_480_271"/>
</filter>
</defs>
</svg>
