<svg width="215" height="93" viewBox="0 0 215 93" fill="none" xmlns="http://www.w3.org/2000/svg">
<g filter="url(#filter0_d_480_194)">
<path d="M64.76 67.664L65.7302 67.4215L65.7284 67.4145L64.76 67.664ZM55.064 30.032L56.0324 29.7825L54.095 29.7848L55.064 30.032ZM45.464 67.664L44.495 67.4168L44.4939 67.4215L45.464 67.664ZM42.2 72.752L42.8097 73.5446L42.8191 73.5374L42.8283 73.5299L42.2 72.752ZM30.968 72.848L30.3583 73.6406L30.368 73.6481L30.378 73.6554L30.968 72.848ZM27.704 68.048L28.6702 67.7903L28.6678 67.7813L28.6652 67.7723L27.704 68.048ZM13.496 18.512L12.5037 18.636L12.5134 18.7131L12.5348 18.7877L13.496 18.512ZM15.416 11.408L16.1065 12.1314L16.1149 12.1233L16.1231 12.1151L15.416 11.408ZM24.92 10.928L24.2724 11.6899L24.2927 11.7072L24.314 11.7234L24.92 10.928ZM27.512 14.864L26.5396 15.0974L26.5404 15.1007L27.512 14.864ZM37.592 56.24L36.6204 56.4767L38.5592 56.4939L37.592 56.24ZM48.632 14.192L49.5992 14.4459L49.5996 14.4444L48.632 14.192ZM50.936 10.64L50.3428 9.83494L50.3323 9.84266L50.3221 9.85065L50.936 10.64ZM61.496 14.192L60.5284 14.4444L60.5288 14.4459L61.496 14.192ZM72.536 56.24L71.5688 56.4939L73.5081 56.4746L72.536 56.24ZM82.52 14.864L83.4921 15.0986L83.4924 15.0974L82.52 14.864ZM85.016 10.928L85.6407 11.7089L85.6452 11.7052L85.016 10.928ZM94.712 11.408L94.0049 12.1151L94.0049 12.1151L94.712 11.408ZM96.632 18.608L97.5936 18.8825L97.6166 18.8018L97.6259 18.7184L96.632 18.608ZM82.52 68.048L81.5584 67.7735L81.556 67.7819L81.5538 67.7903L82.52 68.048ZM79.256 72.848L79.846 73.6554L79.856 73.6481L79.8657 73.6406L79.256 72.848ZM67.928 72.752L67.2848 73.5177L67.3013 73.5315L67.3183 73.5446L67.928 72.752ZM65.7284 67.4145L56.0324 29.7825L54.0956 30.2815L63.7916 67.9135L65.7284 67.4145ZM54.095 29.7848L44.495 67.4168L46.433 67.9112L56.033 30.2792L54.095 29.7848ZM44.4939 67.4215C44.0353 69.2556 43.069 70.7647 41.5717 71.9741L42.8283 73.5299C44.659 72.0513 45.8687 70.1684 46.4341 67.9065L44.4939 67.4215ZM41.5903 71.9594C40.1022 73.104 38.4289 73.672 36.536 73.672V75.672C38.8671 75.672 40.9698 74.96 42.8097 73.5446L41.5903 71.9594ZM36.536 73.672C34.7016 73.672 33.0519 73.1323 31.558 72.0406L30.378 73.6554C32.2121 74.9957 34.2744 75.672 36.536 75.672V73.672ZM31.5777 72.0554C30.0776 70.9015 29.1222 69.4851 28.6702 67.7903L26.7378 68.3057C27.3098 70.4509 28.5304 72.2345 30.3583 73.6406L31.5777 72.0554ZM28.6652 67.7723L14.4572 18.2363L12.5348 18.7877L26.7428 68.3237L28.6652 67.7723ZM14.4883 18.388C14.3586 17.3502 14.304 16.7423 14.304 16.496H12.304C12.304 16.8897 12.3774 17.6258 12.5037 18.636L14.4883 18.388ZM14.304 16.496C14.304 14.7053 14.9074 13.2759 16.1065 12.1314L14.7255 10.6846C13.1086 12.2281 12.304 14.1907 12.304 16.496H14.304ZM16.1231 12.1151C17.3443 10.8939 18.7863 10.296 20.504 10.296V8.296C18.2537 8.296 16.3037 9.10612 14.7089 10.7009L16.1231 12.1151ZM20.504 10.296C21.9282 10.296 23.1713 10.754 24.2724 11.6899L25.5676 10.1661C24.1087 8.92599 22.4078 8.296 20.504 8.296V10.296ZM24.314 11.7234C25.4801 12.6119 26.2109 13.7278 26.5396 15.0974L28.4844 14.6306C28.0451 12.8002 27.0479 11.2921 25.526 10.1326L24.314 11.7234ZM26.5404 15.1007L36.6204 56.4767L38.5636 56.0033L28.4836 14.6273L26.5404 15.1007ZM38.5592 56.4939L49.5992 14.4459L47.6648 13.938L36.6248 55.986L38.5592 56.4939ZM49.5996 14.4444C49.9306 13.1758 50.5795 12.1842 51.5499 11.4293L50.3221 9.85065C48.9885 10.8878 48.1014 12.2642 47.6644 13.9396L49.5996 14.4444ZM51.5292 11.4451C52.5628 10.6834 53.76 10.296 55.16 10.296V8.296C53.36 8.296 51.7412 8.80455 50.3428 9.83494L51.5292 11.4451ZM55.16 10.296C56.4861 10.296 57.6112 10.6774 58.5781 11.4293L59.8059 9.85065C58.4688 8.81063 56.9059 8.296 55.16 8.296V10.296ZM58.5781 11.4293C59.5485 12.1842 60.1974 13.1758 60.5284 14.4444L62.4636 13.9396C62.0266 12.2642 61.1395 10.8878 59.8059 9.85065L58.5781 11.4293ZM60.5288 14.4459L71.5688 56.4939L73.5032 55.986L62.4632 13.938L60.5288 14.4459ZM73.5081 56.4746L83.4921 15.0986L81.5479 14.6294L71.5639 56.0054L73.5081 56.4746ZM83.4924 15.0974C83.8248 13.7125 84.5349 12.5935 85.6407 11.7089L84.3913 10.1471C82.9371 11.3105 81.9833 12.8155 81.5476 14.6306L83.4924 15.0974ZM85.6452 11.7052C86.8113 10.7613 88.1252 10.296 89.624 10.296V8.296C87.6668 8.296 85.9087 8.91874 84.3868 10.1508L85.6452 11.7052ZM89.624 10.296C91.3417 10.296 92.7837 10.8939 94.0049 12.1151L95.4191 10.7009C93.8243 9.10612 91.8743 8.296 89.624 8.296V10.296ZM94.0049 12.1151C95.2261 13.3363 95.824 14.7783 95.824 16.496H97.824C97.824 14.2457 97.0139 12.2957 95.4191 10.7009L94.0049 12.1151ZM95.824 16.496C95.824 16.683 95.7689 17.3204 95.6381 18.4976L97.6259 18.7184C97.7511 17.5916 97.824 16.821 97.824 16.496H95.824ZM95.6704 18.3335L81.5584 67.7735L83.4816 68.3225L97.5936 18.8825L95.6704 18.3335ZM81.5538 67.7903C81.1018 69.4851 80.1464 70.9015 78.6463 72.0554L79.8657 73.6406C81.6936 72.2345 82.9142 70.4509 83.4862 68.3057L81.5538 67.7903ZM78.666 72.0406C77.1777 73.1282 75.4975 73.672 73.592 73.672V75.672C75.9105 75.672 78.0063 74.9998 79.846 73.6554L78.666 72.0406ZM73.592 73.672C71.6991 73.672 70.0258 73.104 68.5377 71.9594L67.3183 73.5446C69.1582 74.96 71.2609 75.672 73.592 75.672V73.672ZM68.5712 71.9863C67.1344 70.7794 66.1916 69.2672 65.7301 67.4215L63.7899 67.9065C64.3524 70.1568 65.5216 72.0366 67.2848 73.5177L68.5712 71.9863ZM138.961 33.104L138.254 33.8111L138.259 33.8162L138.961 33.104ZM111.121 54.704V53.704H109.991L110.129 54.8255L111.121 54.704ZM115.249 62.48L114.595 63.2364L114.606 63.2458L114.617 63.2549L115.249 62.48ZM133.873 62.864L134.364 63.7356L134.376 63.7287L134.388 63.7215L133.873 62.864ZM139.537 63.728L140.244 63.0209L140.244 63.0209L139.537 63.728ZM138.385 71.312L137.9 70.4378L137.889 70.4438L138.385 71.312ZM105.361 68.432L104.664 69.1489L104.669 69.1538L105.361 68.432ZM105.169 33.584L105.886 34.2812L105.891 34.2763L105.169 33.584ZM110.929 46.448L109.938 46.3158L109.787 47.448H110.929V46.448ZM133.777 46.448V47.448H134.846L134.775 46.3815L133.777 46.448ZM130.513 39.152L129.806 39.8591L129.806 39.8591L130.513 39.152ZM114.481 39.152L115.188 39.8591L115.188 39.8591L114.481 39.152ZM122.353 27.48C128.763 27.48 134.039 29.5959 138.254 33.8111L139.668 32.3969C135.052 27.7801 129.255 25.48 122.353 25.48V27.48ZM138.259 33.8162C142.484 37.98 144.585 43.0034 144.585 48.944H146.585C146.585 42.4686 144.27 36.932 139.663 32.3917L138.259 33.8162ZM144.585 48.944C144.585 50.6433 144.065 51.7594 143.161 52.4831C142.213 53.241 140.678 53.704 138.385 53.704V55.704C140.892 55.704 142.957 55.207 144.41 54.0449C145.905 52.8486 146.585 51.0847 146.585 48.944H144.585ZM138.385 53.704L111.121 53.704V55.704L138.385 55.704V53.704ZM110.129 54.8255C110.543 58.2053 112.038 61.0244 114.595 63.2364L115.903 61.7236C113.725 59.8396 112.468 57.4747 112.114 54.5825L110.129 54.8255ZM114.617 63.2549C117.259 65.41 120.567 66.456 124.465 66.456V64.456C120.94 64.456 118.104 63.518 115.881 61.7051L114.617 63.2549ZM124.465 66.456C127.854 66.456 131.157 65.539 134.364 63.7356L133.383 61.9924C130.445 63.645 127.477 64.456 124.465 64.456V66.456ZM134.388 63.7215C134.844 63.4479 135.426 63.288 136.177 63.288V61.288C135.137 61.288 134.183 61.5121 133.359 62.0065L134.388 63.7215ZM136.177 63.288C137.175 63.288 138.045 63.65 138.83 64.4351L140.244 63.0209C139.109 61.886 137.74 61.288 136.177 61.288V63.288ZM138.83 64.4351C139.615 65.2202 139.977 66.0906 139.977 67.088H141.977C141.977 65.5254 141.379 64.1558 140.244 63.0209L138.83 64.4351ZM139.977 67.088C139.977 67.8548 139.801 68.4852 139.477 69.013C139.151 69.544 138.643 70.025 137.9 70.4378L138.871 72.1862C139.856 71.639 140.643 70.936 141.182 70.059C141.722 69.1788 141.977 68.1772 141.977 67.088H139.977ZM137.889 70.4438C133.576 72.9087 128.662 74.152 123.121 74.152V76.152C128.973 76.152 134.235 74.8353 138.881 72.1802L137.889 70.4438ZM123.121 74.152C116.181 74.152 110.518 71.9918 106.053 67.7102L104.669 69.1538C109.548 73.8322 115.725 76.152 123.121 76.152V74.152ZM106.058 67.7151C101.602 63.381 99.3533 57.7626 99.3533 50.768H97.3533C97.3533 58.2374 99.7763 64.395 104.664 69.1489L106.058 67.7151ZM99.3533 50.768C99.3533 44.2326 101.532 38.7582 105.886 34.2812L104.452 32.8868C99.7187 37.7538 97.3533 43.7354 97.3533 50.768H99.3533ZM105.891 34.2763C110.235 29.7483 115.697 27.48 122.353 27.48V25.48C115.185 25.48 109.191 27.9477 104.448 32.8917L105.891 34.2763ZM110.929 47.448L133.777 47.448V45.448L110.929 45.448V47.448ZM134.775 46.3815C134.567 43.2674 133.381 40.6055 131.22 38.4449L129.806 39.8591C131.614 41.6665 132.603 43.8686 132.779 46.5145L134.775 46.3815ZM131.22 38.4449C129.007 36.2318 126.009 35.176 122.353 35.176V37.176C125.609 37.176 128.051 38.1042 129.806 39.8591L131.22 38.4449ZM122.353 35.176C118.871 35.176 115.976 36.2427 113.774 38.4449L115.188 39.8591C116.954 38.0933 119.308 37.176 122.353 37.176V35.176ZM113.774 38.4449C111.629 40.59 110.35 43.2265 109.938 46.3158L111.92 46.5802C112.277 43.9095 113.365 41.682 115.188 39.8591L113.774 38.4449ZM195.672 68.624L196.422 69.2856L195.672 68.624ZM166.68 68.24L167.448 67.5998L165.68 65.4779V68.24H166.68ZM164.76 72.944L164.091 72.2007L164.081 72.2093L164.072 72.218L164.76 72.944ZM156.12 72.848L155.394 73.5357L155.403 73.5456L155.413 73.5551L156.12 72.848ZM156.12 11.12L155.413 10.4129L155.403 10.4224L155.394 10.4323L156.12 11.12ZM164.76 11.12L164.034 11.8077L164.043 11.8176L164.053 11.8271L164.76 11.12ZM166.584 33.584L165.584 33.584V36.5626L167.381 34.1874L166.584 33.584ZM195.672 33.2L194.912 33.8508L194.917 33.8562L195.672 33.2ZM185.592 60.656L186.337 61.3228L186.346 61.3131L185.592 60.656ZM171.096 38.864L171.554 39.7526L171.554 39.7526L171.096 38.864ZM166.584 42.704L165.752 42.1493L165.584 42.4012V42.704L166.584 42.704ZM166.584 59.12L165.584 59.12V59.4336L165.763 59.6911L166.584 59.12ZM171.096 62.864L170.637 63.7526L170.649 63.7585L170.66 63.7642L171.096 62.864ZM200.432 50.864C200.432 58.1809 198.558 63.841 194.922 67.9624L196.422 69.2856C200.465 64.703 202.432 58.5231 202.432 50.864H200.432ZM194.922 67.9624C191.28 72.0904 186.629 74.152 180.888 74.152V76.152C187.179 76.152 192.384 73.8616 196.422 69.2856L194.922 67.9624ZM180.888 74.152C175.574 74.152 171.112 71.9968 167.448 67.5998L165.912 68.8802C169.927 73.6992 174.938 76.152 180.888 76.152V74.152ZM165.68 68.24V68.72H167.68V68.24H165.68ZM165.68 68.72C165.68 70.0895 165.168 71.2308 164.091 72.2007L165.429 73.6873C166.911 72.3532 167.68 70.6785 167.68 68.72H165.68ZM164.072 72.218C163.032 73.2032 161.867 73.672 160.536 73.672V75.672C162.405 75.672 164.055 74.9888 165.447 73.67L164.072 72.218ZM160.536 73.672C159.072 73.672 157.854 73.1683 156.827 72.1409L155.413 73.5551C156.817 74.9597 158.544 75.672 160.536 75.672V73.672ZM156.846 72.1603C155.868 71.1286 155.392 69.9342 155.392 68.528H153.392C153.392 70.4498 154.067 72.1354 155.394 73.5357L156.846 72.1603ZM155.392 68.528V15.44L153.392 15.44V68.528H155.392ZM155.392 15.44C155.392 14.0338 155.868 12.8394 156.846 11.8077L155.394 10.4323C154.067 11.8326 153.392 13.5182 153.392 15.44L155.392 15.44ZM156.827 11.8271C157.854 10.7997 159.072 10.296 160.536 10.296V8.296C158.544 8.296 156.817 9.00834 155.413 10.4129L156.827 11.8271ZM160.536 10.296C161.923 10.296 163.069 10.7896 164.034 11.8077L165.486 10.4323C164.146 9.01841 162.476 8.296 160.536 8.296V10.296ZM164.053 11.8271C165.088 12.8626 165.584 14.051 165.584 15.44H167.584C167.584 13.501 166.863 11.8094 165.467 10.4129L164.053 11.8271ZM165.584 15.44V33.584L167.584 33.584V15.44H165.584ZM167.381 34.1874C170.776 29.7019 175.248 27.48 180.888 27.48V25.48C174.623 25.48 169.56 27.9941 165.786 32.9806L167.381 34.1874ZM180.888 27.48C186.618 27.48 191.267 29.5974 194.912 33.8508L196.431 32.5492C192.397 27.8426 187.189 25.48 180.888 25.48V27.48ZM194.917 33.8562C198.561 38.047 200.432 43.681 200.432 50.864H202.432C202.432 43.327 200.462 37.185 196.426 32.5438L194.917 33.8562ZM186.346 61.3131C188.713 58.5975 189.856 55.0827 189.856 50.864H187.856C187.856 54.7093 186.823 57.7225 184.838 59.9989L186.346 61.3131ZM189.856 50.864C189.856 46.6453 188.713 43.1305 186.346 40.4149L184.838 41.7291C186.823 44.0055 187.856 47.0187 187.856 50.864H189.856ZM186.346 40.4149C183.966 37.6859 180.836 36.328 177.048 36.328V38.328C180.299 38.328 182.865 39.4661 184.838 41.7291L186.346 40.4149ZM177.048 36.328C174.885 36.328 172.745 36.8875 170.637 37.9754L171.554 39.7526C173.415 38.7925 175.242 38.328 177.048 38.328V36.328ZM170.637 37.9754C168.534 39.061 166.888 40.4454 165.752 42.1493L167.416 43.2587C168.328 41.8906 169.69 40.715 171.554 39.7526L170.637 37.9754ZM165.584 42.704V59.12L167.584 59.12V42.704L165.584 42.704ZM165.763 59.6911C166.9 61.3257 168.543 62.6719 170.637 63.7526L171.554 61.9754C169.68 61.0081 168.315 59.8583 167.405 58.5489L165.763 59.6911ZM170.66 63.7642C172.765 64.7825 174.897 65.304 177.048 65.304V63.304C175.231 63.304 173.395 62.8655 171.531 61.9638L170.66 63.7642ZM177.048 65.304C180.827 65.304 183.955 63.9849 186.337 61.3228L184.847 59.9892C182.876 62.1911 180.308 63.304 177.048 63.304V65.304Z" fill="#FAFAFA"/>
</g>
<defs>
<filter id="filter0_d_480_194" x="0.304199" y="0.295898" width="214.127" height="91.856" filterUnits="userSpaceOnUse" color-interpolation-filters="sRGB">
<feFlood flood-opacity="0" result="BackgroundImageFix"/>
<feColorMatrix in="SourceAlpha" type="matrix" values="0 0 0 0 0 0 0 0 0 0 0 0 0 0 0 0 0 0 127 0" result="hardAlpha"/>
<feOffset dy="4"/>
<feGaussianBlur stdDeviation="6.5"/>
<feComposite in2="hardAlpha" operator="out"/>
<feColorMatrix type="matrix" values="0 0 0 0 1 0 0 0 0 1 0 0 0 0 1 0 0 0 0.25 0"/>
<feBlend mode="normal" in2="BackgroundImageFix" result="effect1_dropShadow_480_194"/>
<feBlend mode="normal" in="SourceGraphic" in2="effect1_dropShadow_480_194" result="shape"/>
</filter>
</defs>
</svg>
