<svg width="40" height="40" viewBox="0 0 40 40" fill="none" xmlns="http://www.w3.org/2000/svg">
<g filter="url(#filter0_i_103_78)">
<path d="M20.6089 34.9632C20.6089 33.4376 19.3117 32.234 17.7903 32.3481L13.7713 32.6495V33.4336C13.7713 34.5492 14.3156 35.5947 15.2295 36.2344L16.4826 37.1116C18.2207 38.3282 20.6089 37.0848 20.6089 34.9632V34.9632Z" fill="url(#paint0_linear_103_78)"/>
</g>
<g filter="url(#filter1_i_103_78)">
<path d="M13.7586 33.7916C13.491 29.0631 17.367 25.1385 22.0984 25.3473L24.8825 25.4701V25.4701C24.8825 27.0494 24.0154 28.5011 22.6249 29.2498L13.7714 34.0171L13.7586 33.7916Z" fill="url(#paint1_linear_103_78)"/>
</g>
<g filter="url(#filter2_i_103_78)">
<path d="M24.8826 24.3013C24.8826 19.3626 20.4518 15.6035 15.5791 16.4082L6.25009 17.9487V17.9487C6.25009 19.4714 7.24684 20.8146 8.70419 21.2558L24.8826 26.1539V24.3013Z" fill="url(#paint2_linear_103_78)"/>
</g>
<g filter="url(#filter3_d_103_78)">
<path d="M6.25 13.5296C6.25 10.9595 7.88691 8.67484 10.3205 7.84833L27.9202 1.87108C30.6238 0.952868 33.4295 2.96306 33.4295 5.81837V5.81837C33.4295 7.56134 32.3451 9.12032 30.711 9.72669L6.25 18.8034V13.5296Z" fill="url(#paint3_linear_103_78)"/>
</g>
<defs>
<filter id="filter0_i_103_78" x="13.7712" y="32.3406" width="6.83765" height="9.24951" filterUnits="userSpaceOnUse" color-interpolation-filters="sRGB">
<feFlood flood-opacity="0" result="BackgroundImageFix"/>
<feBlend mode="normal" in="SourceGraphic" in2="BackgroundImageFix" result="shape"/>
<feColorMatrix in="SourceAlpha" type="matrix" values="0 0 0 0 0 0 0 0 0 0 0 0 0 0 0 0 0 0 127 0" result="hardAlpha"/>
<feOffset dy="4"/>
<feGaussianBlur stdDeviation="2"/>
<feComposite in2="hardAlpha" operator="arithmetic" k2="-1" k3="1"/>
<feColorMatrix type="matrix" values="0 0 0 0 0 0 0 0 0 0 0 0 0 0 0 0 0 0 0.25 0"/>
<feBlend mode="normal" in2="shape" result="effect1_innerShadow_103_78"/>
</filter>
<filter id="filter1_i_103_78" x="13.7456" y="25.3393" width="11.137" height="12.6778" filterUnits="userSpaceOnUse" color-interpolation-filters="sRGB">
<feFlood flood-opacity="0" result="BackgroundImageFix"/>
<feBlend mode="normal" in="SourceGraphic" in2="BackgroundImageFix" result="shape"/>
<feColorMatrix in="SourceAlpha" type="matrix" values="0 0 0 0 0 0 0 0 0 0 0 0 0 0 0 0 0 0 127 0" result="hardAlpha"/>
<feOffset dy="4"/>
<feGaussianBlur stdDeviation="2"/>
<feComposite in2="hardAlpha" operator="arithmetic" k2="-1" k3="1"/>
<feColorMatrix type="matrix" values="0 0 0 0 0 0 0 0 0 0 0 0 0 0 0 0 0 0 0.25 0"/>
<feBlend mode="normal" in2="shape" result="effect1_innerShadow_103_78"/>
</filter>
<filter id="filter2_i_103_78" x="6.25" y="16.2993" width="18.6326" height="13.8546" filterUnits="userSpaceOnUse" color-interpolation-filters="sRGB">
<feFlood flood-opacity="0" result="BackgroundImageFix"/>
<feBlend mode="normal" in="SourceGraphic" in2="BackgroundImageFix" result="shape"/>
<feColorMatrix in="SourceAlpha" type="matrix" values="0 0 0 0 0 0 0 0 0 0 0 0 0 0 0 0 0 0 127 0" result="hardAlpha"/>
<feOffset dy="4"/>
<feGaussianBlur stdDeviation="2"/>
<feComposite in2="hardAlpha" operator="arithmetic" k2="-1" k3="1"/>
<feColorMatrix type="matrix" values="0 0 0 0 0 0 0 0 0 0 0 0 0 0 0 0 0 0 0.25 0"/>
<feBlend mode="normal" in2="shape" result="effect1_innerShadow_103_78"/>
</filter>
<filter id="filter3_d_103_78" x="2.25" y="1.64636" width="35.1794" height="25.157" filterUnits="userSpaceOnUse" color-interpolation-filters="sRGB">
<feFlood flood-opacity="0" result="BackgroundImageFix"/>
<feColorMatrix in="SourceAlpha" type="matrix" values="0 0 0 0 0 0 0 0 0 0 0 0 0 0 0 0 0 0 127 0" result="hardAlpha"/>
<feOffset dy="4"/>
<feGaussianBlur stdDeviation="2"/>
<feComposite in2="hardAlpha" operator="out"/>
<feColorMatrix type="matrix" values="0 0 0 0 0 0 0 0 0 0 0 0 0 0 0 0 0 0 0.25 0"/>
<feBlend mode="normal" in2="BackgroundImageFix" result="effect1_dropShadow_103_78"/>
<feBlend mode="normal" in="SourceGraphic" in2="effect1_dropShadow_103_78" result="shape"/>
</filter>
<linearGradient id="paint0_linear_103_78" x1="17.1901" y1="32.1367" x2="17.1901" y2="40" gradientUnits="userSpaceOnUse">
<stop stop-color="#23CACA"/>
<stop offset="1" stop-color="#767EEA"/>
</linearGradient>
<linearGradient id="paint1_linear_103_78" x1="19.0705" y1="24.9573" x2="19.0705" y2="34.0171" gradientUnits="userSpaceOnUse">
<stop stop-color="#23CACA"/>
<stop offset="1" stop-color="#767EEA"/>
</linearGradient>
<linearGradient id="paint2_linear_103_78" x1="15.5663" y1="14.8718" x2="15.5663" y2="26.1539" gradientUnits="userSpaceOnUse">
<stop stop-color="#23CACA"/>
<stop offset="1" stop-color="#767EEA"/>
</linearGradient>
<linearGradient id="paint3_linear_103_78" x1="19.8397" y1="0" x2="19.8397" y2="18.8034" gradientUnits="userSpaceOnUse">
<stop stop-color="#23CACA"/>
<stop offset="1" stop-color="#767EEA"/>
</linearGradient>
</defs>
</svg>
