<svg width="74" height="96" viewBox="0 0 74 96" fill="none" xmlns="http://www.w3.org/2000/svg">
<g filter="url(#filter0_i_103_78)">
<path d="M38.8459 83.9117C38.8459 80.2503 35.7326 77.3617 32.0814 77.6355L22.4357 78.3589V80.3475C22.4357 82.9581 23.7094 85.4044 25.848 86.9014L28.9429 89.0678C33.1143 91.9878 38.8459 89.0036 38.8459 83.9117Z" fill="url(#paint0_linear_103_78)"/>
</g>
<g filter="url(#filter1_i_103_78)">
<path d="M21.7051 68.7318C21.4375 64.0033 25.3135 60.0787 30.0449 60.2875L49.1025 61.1282V62.5037C49.1025 65.4468 47.4866 68.1522 44.8953 69.5475L22.4358 81.641L21.7051 68.7318Z" fill="url(#paint1_linear_103_78)"/>
</g>
<g filter="url(#filter2_i_103_78)">
<path d="M49.1025 45.1218C49.1025 40.1831 44.6718 36.424 39.7991 37.2287L4.38459 43.0769V43.2942C4.38459 46.8196 6.69233 49.9295 10.0665 50.951L49.1025 62.7692V45.1218Z" fill="url(#paint2_linear_103_78)"/>
</g>
<g filter="url(#filter3_d_103_78)">
<path d="M4.38452 26.4527C4.38452 23.8826 6.02144 21.5979 8.45503 20.7714L59.0426 3.59071C64.2311 1.8286 69.6153 5.68628 69.6153 11.1658V15.3586C69.6153 18.7035 67.5343 21.6953 64.3984 22.8589L4.38452 45.1282V26.4527Z" fill="url(#paint3_linear_103_78)"/>
</g>
<defs>
<filter id="filter0_i_103_78" x="22.4358" y="77.6176" width="16.4102" height="16.5989" filterUnits="userSpaceOnUse" color-interpolation-filters="sRGB">
<feFlood flood-opacity="0" result="BackgroundImageFix"/>
<feBlend mode="normal" in="SourceGraphic" in2="BackgroundImageFix" result="shape"/>
<feColorMatrix in="SourceAlpha" type="matrix" values="0 0 0 0 0 0 0 0 0 0 0 0 0 0 0 0 0 0 127 0" result="hardAlpha"/>
<feOffset dy="4"/>
<feGaussianBlur stdDeviation="2"/>
<feComposite in2="hardAlpha" operator="arithmetic" k2="-1" k3="1"/>
<feColorMatrix type="matrix" values="0 0 0 0 0 0 0 0 0 0 0 0 0 0 0 0 0 0 0.25 0"/>
<feBlend mode="normal" in2="shape" result="effect1_innerShadow_103_78"/>
</filter>
<filter id="filter1_i_103_78" x="21.6921" y="60.2795" width="27.4104" height="25.3616" filterUnits="userSpaceOnUse" color-interpolation-filters="sRGB">
<feFlood flood-opacity="0" result="BackgroundImageFix"/>
<feBlend mode="normal" in="SourceGraphic" in2="BackgroundImageFix" result="shape"/>
<feColorMatrix in="SourceAlpha" type="matrix" values="0 0 0 0 0 0 0 0 0 0 0 0 0 0 0 0 0 0 127 0" result="hardAlpha"/>
<feOffset dy="4"/>
<feGaussianBlur stdDeviation="2"/>
<feComposite in2="hardAlpha" operator="arithmetic" k2="-1" k3="1"/>
<feColorMatrix type="matrix" values="0 0 0 0 0 0 0 0 0 0 0 0 0 0 0 0 0 0 0.25 0"/>
<feBlend mode="normal" in2="shape" result="effect1_innerShadow_103_78"/>
</filter>
<filter id="filter2_i_103_78" x="4.38452" y="37.1198" width="44.718" height="29.6494" filterUnits="userSpaceOnUse" color-interpolation-filters="sRGB">
<feFlood flood-opacity="0" result="BackgroundImageFix"/>
<feBlend mode="normal" in="SourceGraphic" in2="BackgroundImageFix" result="shape"/>
<feColorMatrix in="SourceAlpha" type="matrix" values="0 0 0 0 0 0 0 0 0 0 0 0 0 0 0 0 0 0 127 0" result="hardAlpha"/>
<feOffset dy="4"/>
<feGaussianBlur stdDeviation="2"/>
<feComposite in2="hardAlpha" operator="arithmetic" k2="-1" k3="1"/>
<feColorMatrix type="matrix" values="0 0 0 0 0 0 0 0 0 0 0 0 0 0 0 0 0 0 0.25 0"/>
<feBlend mode="normal" in2="shape" result="effect1_innerShadow_103_78"/>
</filter>
<filter id="filter3_d_103_78" x="0.384521" y="3.15948" width="73.2307" height="49.9687" filterUnits="userSpaceOnUse" color-interpolation-filters="sRGB">
<feFlood flood-opacity="0" result="BackgroundImageFix"/>
<feColorMatrix in="SourceAlpha" type="matrix" values="0 0 0 0 0 0 0 0 0 0 0 0 0 0 0 0 0 0 127 0" result="hardAlpha"/>
<feOffset dy="4"/>
<feGaussianBlur stdDeviation="2"/>
<feComposite in2="hardAlpha" operator="out"/>
<feColorMatrix type="matrix" values="0 0 0 0 0 0 0 0 0 0 0 0 0 0 0 0 0 0 0.25 0"/>
<feBlend mode="normal" in2="BackgroundImageFix" result="effect1_dropShadow_103_78"/>
<feBlend mode="normal" in="SourceGraphic" in2="effect1_dropShadow_103_78" result="shape"/>
</filter>
<linearGradient id="paint0_linear_103_78" x1="30.6408" y1="77.1282" x2="30.6408" y2="96" gradientUnits="userSpaceOnUse">
<stop stop-color="#23CACA"/>
<stop offset="1" stop-color="#767EEA"/>
</linearGradient>
<linearGradient id="paint1_linear_103_78" x1="35.1538" y1="59.8975" x2="35.1538" y2="81.641" gradientUnits="userSpaceOnUse">
<stop stop-color="#23CACA"/>
<stop offset="1" stop-color="#767EEA"/>
</linearGradient>
<linearGradient id="paint2_linear_103_78" x1="26.7436" y1="35.6923" x2="26.7436" y2="62.7692" gradientUnits="userSpaceOnUse">
<stop stop-color="#23CACA"/>
<stop offset="1" stop-color="#767EEA"/>
</linearGradient>
<linearGradient id="paint3_linear_103_78" x1="36.9999" y1="0" x2="36.9999" y2="45.1282" gradientUnits="userSpaceOnUse">
<stop stop-color="#23CACA"/>
<stop offset="1" stop-color="#767EEA"/>
</linearGradient>
</defs>
</svg>
